<svg width="31" height="31" viewBox="0 0 31 31" fill="none" xmlns="http://www.w3.org/2000/svg">
<path d="M9.2999 4.65002C8.06665 4.65002 6.8839 5.13993 6.01186 6.01198C5.13981 6.88402 4.6499 8.06677 4.6499 9.30002V21.7C4.6499 22.9333 5.13981 24.116 6.01186 24.9881C6.8839 25.8601 8.06665 26.35 9.2999 26.35H14.8799C14.6264 25.8546 14.4224 25.3354 14.2708 24.8H9.2999C8.47773 24.8 7.68923 24.4734 7.10787 23.8921C6.52651 23.3107 6.1999 22.5222 6.1999 21.7V9.30002C6.1999 8.47785 6.52651 7.68936 7.10787 7.10799C7.68923 6.52663 8.47773 6.20002 9.2999 6.20002H21.6999C22.5221 6.20002 23.3106 6.52663 23.8919 7.10799C24.4733 7.68936 24.7999 8.47785 24.7999 9.30002V14.2709C25.3409 14.4243 25.8586 14.6274 26.3499 14.88V9.30002C26.3499 8.06677 25.86 6.88402 24.988 6.01198C24.1159 5.13993 22.9332 4.65002 21.6999 4.65002H9.2999ZM14.7249 15.5H17.5723C18.9595 14.5235 20.6506 13.95 22.4749 13.95H14.7249C14.5194 13.95 14.3222 14.0317 14.1769 14.177C14.0316 14.3224 13.9499 14.5195 13.9499 14.725C13.9499 14.9306 14.0316 15.1277 14.1769 15.273C14.3222 15.4184 14.5194 15.5 14.7249 15.5ZM8.5249 7.75002C8.31936 7.75002 8.12224 7.83168 7.97689 7.97702C7.83155 8.12236 7.7499 8.31948 7.7499 8.52502C7.7499 8.73057 7.83155 8.92769 7.97689 9.07303C8.12224 9.21837 8.31936 9.30002 8.5249 9.30002H22.4749C22.6804 9.30002 22.8776 9.21837 23.0229 9.07303C23.1683 8.92769 23.2499 8.73057 23.2499 8.52502C23.2499 8.31948 23.1683 8.12236 23.0229 7.97702C22.8776 7.83168 22.6804 7.75002 22.4749 7.75002H8.5249ZM10.0749 17.05C10.6915 17.05 11.2829 16.8051 11.7189 16.369C12.1549 15.933 12.3999 15.3417 12.3999 14.725C12.3999 14.1084 12.1549 13.517 11.7189 13.081C11.2829 12.645 10.6915 12.4 10.0749 12.4C9.45827 12.4 8.8669 12.645 8.43088 13.081C7.99486 13.517 7.7499 14.1084 7.7499 14.725C7.7499 15.3417 7.99486 15.933 8.43088 16.369C8.8669 16.8051 9.45827 17.05 10.0749 17.05ZM10.0749 15.5C9.86936 15.5 9.67224 15.4184 9.5269 15.273C9.38155 15.1277 9.2999 14.9306 9.2999 14.725C9.2999 14.5195 9.38155 14.3224 9.5269 14.177C9.67224 14.0317 9.86936 13.95 10.0749 13.95C10.2804 13.95 10.4776 14.0317 10.6229 14.177C10.7683 14.3224 10.8499 14.5195 10.8499 14.725C10.8499 14.9306 10.7683 15.1277 10.6229 15.273C10.4776 15.4184 10.2804 15.5 10.0749 15.5ZM10.0749 23.25C10.6915 23.25 11.2829 23.0051 11.7189 22.569C12.1549 22.133 12.3999 21.5417 12.3999 20.925C12.3999 20.3084 12.1549 19.717 11.7189 19.281C11.2829 18.845 10.6915 18.6 10.0749 18.6C9.45827 18.6 8.8669 18.845 8.43088 19.281C7.99486 19.717 7.7499 20.3084 7.7499 20.925C7.7499 21.5417 7.99486 22.133 8.43088 22.569C8.8669 23.0051 9.45827 23.25 10.0749 23.25ZM10.0749 20.15C10.2804 20.15 10.4776 20.2317 10.6229 20.377C10.7683 20.5224 10.8499 20.7195 10.8499 20.925C10.8499 21.1306 10.7683 21.3277 10.6229 21.473C10.4776 21.6184 10.2804 21.7 10.0749 21.7C9.86936 21.7 9.67224 21.6184 9.5269 21.473C9.38155 21.3277 9.2999 21.1306 9.2999 20.925C9.2999 20.7195 9.38155 20.5224 9.5269 20.377C9.67224 20.2317 9.86936 20.15 10.0749 20.15ZM29.4499 22.475C29.4499 24.3249 28.715 26.099 27.407 27.4071C26.0989 28.7152 24.3248 29.45 22.4749 29.45C20.625 29.45 18.8509 28.7152 17.5428 27.4071C16.2348 26.099 15.4999 24.3249 15.4999 22.475C15.4999 20.6251 16.2348 18.851 17.5428 17.543C18.8509 16.2349 20.625 15.5 22.4749 15.5C24.3248 15.5 26.0989 16.2349 27.407 17.543C28.715 18.851 29.4499 20.6251 29.4499 22.475ZM23.2499 19.375C23.2499 19.1695 23.1683 18.9724 23.0229 18.827C22.8776 18.6817 22.6804 18.6 22.4749 18.6C22.2694 18.6 22.0722 18.6817 21.9269 18.827C21.7816 18.9724 21.6999 19.1695 21.6999 19.375V21.7H19.3749C19.1694 21.7 18.9722 21.7817 18.8269 21.927C18.6816 22.0724 18.5999 22.2695 18.5999 22.475C18.5999 22.6806 18.6816 22.8777 18.8269 23.023C18.9722 23.1684 19.1694 23.25 19.3749 23.25H21.6999V25.575C21.6999 25.7806 21.7816 25.9777 21.9269 26.123C22.0722 26.2684 22.2694 26.35 22.4749 26.35C22.6804 26.35 22.8776 26.2684 23.0229 26.123C23.1683 25.9777 23.2499 25.7806 23.2499 25.575V23.25H25.5749C25.7804 23.25 25.9776 23.1684 26.1229 23.023C26.2683 22.8777 26.3499 22.6806 26.3499 22.475C26.3499 22.2695 26.2683 22.0724 26.1229 21.927C25.9776 21.7817 25.7804 21.7 25.5749 21.7H23.2499V19.375Z" fill="#D6A12B"/>
</svg>
