<svg width="22" height="22" viewBox="0 0 22 22" fill="none" xmlns="http://www.w3.org/2000/svg">
<g id="layout-grid">
<g id="Vector">
<path d="M8.24996 3.66669H4.58329C4.07703 3.66669 3.66663 4.07709 3.66663 4.58335V8.25002C3.66663 8.75628 4.07703 9.16669 4.58329 9.16669H8.24996C8.75622 9.16669 9.16663 8.75628 9.16663 8.25002V4.58335C9.16663 4.07709 8.75622 3.66669 8.24996 3.66669Z" fill="url(#paint0_linear_1025_4166)"/>
<path d="M17.4166 3.66669H13.75C13.2437 3.66669 12.8333 4.07709 12.8333 4.58335V8.25002C12.8333 8.75628 13.2437 9.16669 13.75 9.16669H17.4166C17.9229 9.16669 18.3333 8.75628 18.3333 8.25002V4.58335C18.3333 4.07709 17.9229 3.66669 17.4166 3.66669Z" fill="url(#paint1_linear_1025_4166)"/>
<path d="M8.24996 12.8334H4.58329C4.07703 12.8334 3.66663 13.2438 3.66663 13.75V17.4167C3.66663 17.9229 4.07703 18.3334 4.58329 18.3334H8.24996C8.75622 18.3334 9.16663 17.9229 9.16663 17.4167V13.75C9.16663 13.2438 8.75622 12.8334 8.24996 12.8334Z" fill="url(#paint2_linear_1025_4166)"/>
<path d="M17.4166 12.8334H13.75C13.2437 12.8334 12.8333 13.2438 12.8333 13.75V17.4167C12.8333 17.9229 13.2437 18.3334 13.75 18.3334H17.4166C17.9229 18.3334 18.3333 17.9229 18.3333 17.4167V13.75C18.3333 13.2438 17.9229 12.8334 17.4166 12.8334Z" fill="url(#paint3_linear_1025_4166)"/>
<path d="M8.24996 3.66669H4.58329C4.07703 3.66669 3.66663 4.07709 3.66663 4.58335V8.25002C3.66663 8.75628 4.07703 9.16669 4.58329 9.16669H8.24996C8.75622 9.16669 9.16663 8.75628 9.16663 8.25002V4.58335C9.16663 4.07709 8.75622 3.66669 8.24996 3.66669Z" stroke="url(#paint4_linear_1025_4166)" stroke-width="2" stroke-linecap="round" stroke-linejoin="round"/>
<path d="M17.4166 3.66669H13.75C13.2437 3.66669 12.8333 4.07709 12.8333 4.58335V8.25002C12.8333 8.75628 13.2437 9.16669 13.75 9.16669H17.4166C17.9229 9.16669 18.3333 8.75628 18.3333 8.25002V4.58335C18.3333 4.07709 17.9229 3.66669 17.4166 3.66669Z" stroke="url(#paint5_linear_1025_4166)" stroke-width="2" stroke-linecap="round" stroke-linejoin="round"/>
<path d="M8.24996 12.8334H4.58329C4.07703 12.8334 3.66663 13.2438 3.66663 13.75V17.4167C3.66663 17.9229 4.07703 18.3334 4.58329 18.3334H8.24996C8.75622 18.3334 9.16663 17.9229 9.16663 17.4167V13.75C9.16663 13.2438 8.75622 12.8334 8.24996 12.8334Z" stroke="url(#paint6_linear_1025_4166)" stroke-width="2" stroke-linecap="round" stroke-linejoin="round"/>
<path d="M17.4166 12.8334H13.75C13.2437 12.8334 12.8333 13.2438 12.8333 13.75V17.4167C12.8333 17.9229 13.2437 18.3334 13.75 18.3334H17.4166C17.9229 18.3334 18.3333 17.9229 18.3333 17.4167V13.75C18.3333 13.2438 17.9229 12.8334 17.4166 12.8334Z" stroke="url(#paint7_linear_1025_4166)" stroke-width="2" stroke-linecap="round" stroke-linejoin="round"/>
</g>
</g>
<defs>
<linearGradient id="paint0_linear_1025_4166" x1="3.66663" y1="18.3334" x2="18.3333" y2="18.3334" gradientUnits="userSpaceOnUse">
<stop stop-color="#8D133E"/>
<stop offset="1" stop-color="#D6A12B"/>
</linearGradient>
<linearGradient id="paint1_linear_1025_4166" x1="3.66663" y1="18.3334" x2="18.3333" y2="18.3334" gradientUnits="userSpaceOnUse">
<stop stop-color="#8D133E"/>
<stop offset="1" stop-color="#D6A12B"/>
</linearGradient>
<linearGradient id="paint2_linear_1025_4166" x1="3.66663" y1="18.3334" x2="18.3333" y2="18.3334" gradientUnits="userSpaceOnUse">
<stop stop-color="#8D133E"/>
<stop offset="1" stop-color="#D6A12B"/>
</linearGradient>
<linearGradient id="paint3_linear_1025_4166" x1="3.66663" y1="18.3334" x2="18.3333" y2="18.3334" gradientUnits="userSpaceOnUse">
<stop stop-color="#8D133E"/>
<stop offset="1" stop-color="#D6A12B"/>
</linearGradient>
<linearGradient id="paint4_linear_1025_4166" x1="3.66663" y1="18.3334" x2="18.3333" y2="18.3334" gradientUnits="userSpaceOnUse">
<stop stop-color="#8D133E"/>
<stop offset="1" stop-color="#D6A12B"/>
</linearGradient>
<linearGradient id="paint5_linear_1025_4166" x1="3.66663" y1="18.3334" x2="18.3333" y2="18.3334" gradientUnits="userSpaceOnUse">
<stop stop-color="#8D133E"/>
<stop offset="1" stop-color="#D6A12B"/>
</linearGradient>
<linearGradient id="paint6_linear_1025_4166" x1="3.66663" y1="18.3334" x2="18.3333" y2="18.3334" gradientUnits="userSpaceOnUse">
<stop stop-color="#8D133E"/>
<stop offset="1" stop-color="#D6A12B"/>
</linearGradient>
<linearGradient id="paint7_linear_1025_4166" x1="3.66663" y1="18.3334" x2="18.3333" y2="18.3334" gradientUnits="userSpaceOnUse">
<stop stop-color="#8D133E"/>
<stop offset="1" stop-color="#D6A12B"/>
</linearGradient>
</defs>
</svg>
