<svg width="186" height="45" viewBox="0 0 186 45" fill="none" xmlns="http://www.w3.org/2000/svg">
<g clip-path="url(#clip0_1014_1285)">
<path fill-rule="evenodd" clip-rule="evenodd" d="M4.80677 41.5302L8.63323 39.3363L10.1695 38.4548L11.6778 37.5852L14.0444 36.229L17.8029 34.0829L21.5653 36.229L23.9279 37.5852L25.436 38.4548L26.9764 39.3363L30.7228 41.4983L31.8619 42.1445L32.973 42.7788L35.2273 44.0712V23.3048L30.7228 20.716V36.3566L27.6743 34.6015L23.1817 32.0326L21.4689 31.0354L20.0572 30.2376V4.44913H15.5525V30.8519L12.4239 32.6509L7.93539 35.2397L4.80677 37.0227V20.7479L0.318115 23.3207V44.1031L2.55637 42.8107L3.67961 42.1764L4.80677 41.5302ZM27.6704 31.0194V-0.209961H23.1778V28.4506L27.6704 31.0194ZM12.428 29.0489V9.10424H7.93931V31.6377L12.428 29.0489Z" fill="#222222" fill-opacity="0.42"/>
</g>
<path d="M54.2594 31.7727H58.1829L61.7997 19.3233H61.9484L65.5745 31.7727H69.498L74.9464 12.7314H70.5486L67.3968 25.9897H67.2294L63.7614 12.7314H59.996L56.5187 25.9618H56.3606L53.2088 12.7314H48.811L54.2594 31.7727Z" fill="#222222" fill-opacity="0.42"/>
<path d="M77.1011 31.7727H89.9688V28.4535H81.1269V23.907H89.2715V20.5878H81.1269V16.0506H89.9316V12.7314H77.1011V31.7727Z" fill="#222222" fill-opacity="0.42"/>
<path d="M93.1323 31.7727H105.321V28.4535H97.1581V12.7314H93.1323V31.7727Z" fill="#222222" fill-opacity="0.42"/>
<path d="M104.443 12.7314L111.388 25.0413V31.7727H115.386V25.0413L122.331 12.7314H117.822L113.48 20.9318H113.294L108.952 12.7314H104.443Z" fill="#222222" fill-opacity="0.42"/>
<path d="M125.007 16.0506H130.836V31.7727H134.815V16.0506H140.645V12.7314H125.007V16.0506Z" fill="#222222" fill-opacity="0.42"/>
<path d="M147.246 12.7314H143.22V31.7727H147.246V12.7314Z" fill="#222222" fill-opacity="0.42"/>
<path d="M167.359 19.3977C166.829 15 163.501 12.4711 159.094 12.4711C154.064 12.4711 150.224 16.0227 150.224 22.2521C150.224 28.4628 153.999 32.0331 159.094 32.0331C163.975 32.0331 166.922 28.7882 167.359 25.2831L163.287 25.2645C162.906 27.3006 161.306 28.4721 159.159 28.4721C156.267 28.4721 154.305 26.3244 154.305 22.2521C154.305 18.2913 156.239 16.032 159.187 16.032C161.39 16.032 162.98 17.3058 163.287 19.3977H167.359Z" fill="#222222" fill-opacity="0.42"/>
<path d="M180.576 18.2076H184.434C184.378 14.814 181.589 12.4711 177.349 12.4711C173.175 12.4711 170.116 14.7769 170.134 18.2355C170.125 21.0434 172.105 22.6519 175.322 23.4235L177.396 23.9442C179.469 24.4463 180.622 25.0413 180.631 26.3244C180.622 27.719 179.302 28.6674 177.256 28.6674C175.164 28.6674 173.658 27.7004 173.528 25.7944H169.632C169.735 29.9132 172.682 32.0424 177.303 32.0424C181.952 32.0424 184.685 29.8202 184.694 26.3337C184.685 23.1632 182.296 21.4804 178.986 20.7366L177.275 20.3275C175.62 19.9463 174.235 19.3326 174.262 17.9659C174.262 16.7386 175.35 15.8368 177.321 15.8368C179.246 15.8368 180.427 16.7107 180.576 18.2076Z" fill="#222222" fill-opacity="0.42"/>
<defs>
<clipPath id="clip0_1014_1285">
<rect width="34.9091" height="43.6364" fill="white" transform="translate(0.318237 0.681763)"/>
</clipPath>
</defs>
</svg>
