<svg width="184" height="49" viewBox="0 0 184 49" fill="none" xmlns="http://www.w3.org/2000/svg">
<g clip-path="url(#clip0_1014_1283)">
<path fill-rule="evenodd" clip-rule="evenodd" d="M27.425 47.5853C32.6199 46.9788 37.4581 44.6369 41.1564 40.9386C44.8547 37.2403 47.1966 32.4021 47.8031 27.2073H39.0723C38.5216 30.0903 37.1163 32.7411 35.0392 34.8149C32.962 36.8887 30.309 38.2896 27.425 38.8356V47.5853Z" fill="#222222" fill-opacity="0.42"/>
<path fill-rule="evenodd" clip-rule="evenodd" d="M35.1805 3.74608L35.2354 3.71011C40.8848 0.464022 45.4529 -0.490521 47.5797 1.63818C53.5965 7.6531 36.6293 26.3626 31.603 31.3889C28.5802 34.4205 25.3769 37.2665 22.0106 39.9113V47.5796C19.3041 47.2723 16.6744 46.4834 14.2457 45.2501L14.1908 45.2861C8.54138 48.5322 3.97533 49.4867 1.84663 47.3693C-1.06992 44.4528 2.34275 37.739 3.95633 34.9683C2.73069 32.5366 1.94224 29.9083 1.62691 27.2035H10.3765C10.7591 29.2342 11.5685 31.1607 12.751 32.8554C13.9335 34.5501 15.4622 35.9746 17.2361 37.0345C16.2267 37.7675 15.2002 38.4644 14.1358 39.1178C12.5772 40.1083 10.9637 41.0438 9.29327 41.8866C7.98599 40.7289 6.8167 39.4243 5.80858 37.9985C4.04728 41.3923 3.46019 43.8865 4.39576 44.8164C8.41265 48.7935 26.4801 32.1976 29.4516 29.2261C32.6151 26.0667 35.5743 22.7091 38.311 19.1735C37.4092 16.8688 35.9361 14.8313 34.0301 13.2527C32.1241 11.674 29.848 10.6061 27.4156 10.1492V1.39955C30.1227 1.70412 32.7528 2.49317 35.1805 3.72902V3.74608ZM43.6176 10.992C45.3789 7.5982 45.966 5.10398 45.0304 4.17409C44.0949 3.24421 41.6215 3.84457 38.2258 5.60587C40.3134 7.08735 42.1361 8.91016 43.6176 10.9977V10.992Z" fill="#222222" fill-opacity="0.42"/>
<path fill-rule="evenodd" clip-rule="evenodd" d="M22.0144 1.41663C16.8193 2.02353 11.9812 4.36584 8.28291 8.06443C4.58467 11.763 2.24277 16.6014 1.63635 21.7965H10.386C10.9293 18.9131 12.3297 16.2606 14.4042 14.1857C16.4788 12.1108 19.1311 10.71 22.0144 10.1663V1.41663Z" fill="#222222" fill-opacity="0.42"/>
</g>
<path d="M88.3296 30.0568C88.3296 31.0682 88.1364 32.0228 87.75 32.9205C87.375 33.8068 86.8523 34.5853 86.1819 35.2557C85.5228 35.9148 84.7444 36.4375 83.8466 36.8239C82.9603 37.1989 82.0114 37.3864 81 37.3864C80.0909 37.3864 79.2159 37.2273 78.375 36.9091C77.5455 36.5909 76.7955 36.125 76.125 35.5114C75.4546 36.125 74.6989 36.5909 73.858 36.9091C73.0171 37.2273 72.1421 37.3864 71.233 37.3864C70.2216 37.3864 69.2671 37.1989 68.3694 36.8239C67.483 36.4375 66.7046 35.9148 66.0341 35.2557C65.375 34.5853 64.8523 33.8068 64.4659 32.9205C64.0909 32.0228 63.9034 31.0682 63.9034 30.0568V12.6023H68.7955V30.0568C68.7955 30.3978 68.858 30.7216 68.983 31.0284C69.108 31.3239 69.2784 31.5853 69.4944 31.8125C69.7216 32.0284 69.983 32.1989 70.2784 32.3239C70.5739 32.4489 70.8921 32.5114 71.233 32.5114C71.5739 32.5114 71.8921 32.4489 72.1875 32.3239C72.483 32.1989 72.7387 32.0284 72.9546 31.8125C73.1819 31.5853 73.358 31.3239 73.483 31.0284C73.608 30.7216 73.6705 30.3978 73.6705 30.0568V12.6023H78.5625V30.0568C78.5625 30.3978 78.625 30.7216 78.75 31.0284C78.875 31.3239 79.0455 31.5853 79.2614 31.8125C79.4887 32.0284 79.75 32.1989 80.0455 32.3239C80.3409 32.4489 80.6591 32.5114 81 32.5114C81.3409 32.5114 81.6591 32.4489 81.9546 32.3239C82.25 32.1989 82.5057 32.0284 82.7216 31.8125C82.9489 31.5853 83.125 31.3239 83.25 31.0284C83.3864 30.7216 83.4546 30.3978 83.4546 30.0568V12.6023H88.3296V30.0568Z" fill="#222222" fill-opacity="0.42"/>
<path d="M97.7046 13.8296C97.7046 14.2614 97.6194 14.6648 97.4489 15.0398C97.2898 15.4148 97.0682 15.7443 96.7841 16.0284C96.5 16.3012 96.1648 16.5227 95.7784 16.6932C95.4034 16.8523 95 16.9318 94.5682 16.9318C94.1364 16.9318 93.7273 16.8523 93.3409 16.6932C92.9659 16.5227 92.6364 16.3012 92.3523 16.0284C92.0796 15.7443 91.858 15.4148 91.6875 15.0398C91.5284 14.6648 91.4489 14.2614 91.4489 13.8296C91.4489 13.4091 91.5284 13.0114 91.6875 12.6364C91.858 12.25 92.0796 11.9205 92.3523 11.6477C92.6364 11.3637 92.9659 11.1421 93.3409 10.983C93.7273 10.8125 94.1364 10.7273 94.5682 10.7273C95 10.7273 95.4034 10.8125 95.7784 10.983C96.1648 11.1421 96.5 11.3637 96.7841 11.6477C97.0682 11.9205 97.2898 12.25 97.4489 12.6364C97.6194 13.0114 97.7046 13.4091 97.7046 13.8296ZM96.9034 37.0455H92.2159V18.7898H96.9034V37.0455Z" fill="#222222" fill-opacity="0.42"/>
<path d="M110.489 37.0455H99.8523V32.4091H110.489C110.807 32.4091 111.08 32.2955 111.307 32.0682C111.534 31.8409 111.648 31.5682 111.648 31.25C111.648 30.9205 111.534 30.7046 111.307 30.6023C111.08 30.5 110.807 30.4489 110.489 30.4489H105.648C104.841 30.4489 104.085 30.2955 103.381 29.9887C102.676 29.6818 102.063 29.2671 101.54 28.7443C101.017 28.2103 100.602 27.5909 100.295 26.8864C100 26.1818 99.8523 25.4262 99.8523 24.6193C99.8523 23.8125 100 23.0568 100.295 22.3523C100.602 21.6477 101.017 21.0341 101.54 20.5114C102.063 19.9887 102.676 19.5796 103.381 19.2841C104.085 18.9773 104.841 18.8239 105.648 18.8239H115.074V23.4602H105.648C105.33 23.4602 105.057 23.5739 104.83 23.8012C104.602 24.0284 104.489 24.3012 104.489 24.6193C104.489 24.9489 104.602 25.233 104.83 25.4716C105.057 25.6989 105.33 25.8125 105.648 25.8125H110.489C111.284 25.8125 112.034 25.9489 112.739 26.2216C113.443 26.483 114.057 26.8523 114.58 27.3296C115.102 27.8068 115.517 28.3807 115.824 29.0512C116.131 29.7216 116.284 30.4546 116.284 31.25C116.284 32.0568 116.131 32.8125 115.824 33.5171C115.517 34.2103 115.102 34.8239 114.58 35.358C114.057 35.8807 113.443 36.2955 112.739 36.6023C112.034 36.8978 111.284 37.0455 110.489 37.0455Z" fill="#222222" fill-opacity="0.42"/>
<path d="M123.426 37.0455H118.773V11.5284H123.426V19.5909C123.983 19.1705 124.557 18.875 125.148 18.7046C125.739 18.5227 126.341 18.4318 126.955 18.4318C128.08 18.4318 129.136 18.6477 130.125 19.0796C131.114 19.5 131.972 20.0852 132.699 20.8352C133.438 21.5739 134.017 22.4432 134.438 23.4432C134.869 24.4318 135.085 25.4887 135.085 26.6137V37.0455H130.398V26.6137H130.432C130.432 26.1364 130.341 25.6875 130.159 25.2671C129.977 24.8352 129.727 24.4602 129.409 24.1421C129.091 23.8239 128.722 23.5739 128.301 23.3921C127.881 23.2102 127.432 23.1193 126.955 23.1193C126.466 23.1193 126.006 23.2102 125.574 23.3921C125.142 23.5739 124.767 23.8239 124.449 24.1421C124.131 24.4602 123.881 24.8352 123.699 25.2671C123.517 25.6875 123.426 26.1364 123.426 26.6137V37.0455Z" fill="#222222" fill-opacity="0.42"/>
<path d="M145.67 32.5796C145.852 32.6364 146.034 32.6762 146.216 32.6989C146.398 32.7103 146.58 32.7159 146.761 32.7159C147.216 32.7159 147.653 32.6534 148.074 32.5284C148.494 32.4034 148.886 32.2273 149.25 32C149.625 31.7614 149.955 31.4773 150.239 31.1478C150.534 30.8068 150.773 30.4318 150.955 30.0228L154.364 33.4489C153.932 34.0625 153.432 34.6137 152.864 35.1023C152.307 35.5909 151.699 36.0057 151.04 36.3466C150.392 36.6875 149.705 36.9432 148.977 37.1137C148.261 37.2955 147.523 37.3864 146.761 37.3864C145.477 37.3864 144.267 37.1478 143.131 36.6705C142.006 36.1932 141.017 35.5284 140.165 34.6762C139.324 33.8239 138.659 32.8125 138.17 31.6421C137.682 30.4603 137.438 29.1648 137.438 27.7557C137.438 26.3125 137.682 24.9943 138.17 23.8012C138.659 22.608 139.324 21.5909 140.165 20.75C141.017 19.9091 142.006 19.2557 143.131 18.7898C144.267 18.3239 145.477 18.0909 146.761 18.0909C147.523 18.0909 148.267 18.1818 148.994 18.3637C149.722 18.5455 150.409 18.8068 151.057 19.1477C151.716 19.4887 152.33 19.9091 152.898 20.4091C153.466 20.8977 153.966 21.4489 154.398 22.0625L145.67 32.5796ZM148.057 22.983C147.841 22.9034 147.625 22.8523 147.409 22.8296C147.205 22.8068 146.989 22.7955 146.761 22.7955C146.125 22.7955 145.523 22.9148 144.955 23.1534C144.398 23.3807 143.909 23.7102 143.489 24.1421C143.08 24.5739 142.756 25.0966 142.517 25.7102C142.278 26.3125 142.159 26.9943 142.159 27.7557C142.159 27.9262 142.165 28.1193 142.176 28.3353C142.199 28.5512 142.227 28.7728 142.261 29C142.307 29.2159 142.358 29.4262 142.415 29.6307C142.472 29.8353 142.545 30.0171 142.636 30.1762L148.057 22.983Z" fill="#222222" fill-opacity="0.42"/>
<path d="M161.438 37.0455H156.75V11.5284H161.438V37.0455Z" fill="#222222" fill-opacity="0.42"/>
<path d="M169.688 44H165V18.7898H166.125L167.983 20.9887C168.403 20.5909 168.864 20.2159 169.364 19.8637C169.864 19.5114 170.381 19.2102 170.915 18.9602C171.46 18.6989 172.023 18.4943 172.602 18.3466C173.182 18.1989 173.767 18.125 174.358 18.125C175.642 18.125 176.847 18.358 177.972 18.8239C179.108 19.2784 180.097 19.9262 180.938 20.7671C181.79 21.608 182.46 22.625 182.949 23.8182C183.438 25 183.682 26.3125 183.682 27.7557C183.682 29.2557 183.438 30.608 182.949 31.8125C182.46 33.0057 181.79 34.0228 180.938 34.8637C180.097 35.6932 179.108 36.3296 177.972 36.7728C176.847 37.2159 175.642 37.4375 174.358 37.4375C173.949 37.4375 173.54 37.3921 173.131 37.3012C172.733 37.2103 172.335 37.0909 171.938 36.9432C171.551 36.7841 171.165 36.608 170.778 36.4148C170.403 36.2216 170.04 36.0228 169.688 35.8182V44ZM179.011 27.7557C179.011 26.983 178.886 26.2898 178.636 25.6762C178.398 25.0625 178.068 24.5455 177.648 24.125C177.227 23.6932 176.733 23.3637 176.165 23.1364C175.597 22.9091 174.994 22.7955 174.358 22.7955C173.722 22.7955 173.119 22.9091 172.551 23.1364C171.994 23.3637 171.506 23.6932 171.085 24.125C170.665 24.5455 170.33 25.0625 170.08 25.6762C169.841 26.2898 169.722 26.983 169.722 27.7557C169.722 28.4943 169.841 29.1705 170.08 29.7841C170.33 30.3978 170.665 30.9205 171.085 31.3523C171.506 31.7841 171.994 32.1193 172.551 32.358C173.119 32.5966 173.722 32.7159 174.358 32.7159C174.994 32.7159 175.597 32.5966 176.165 32.358C176.733 32.1193 177.227 31.7841 177.648 31.3523C178.068 30.9205 178.398 30.3978 178.636 29.7841C178.886 29.1705 179.011 28.4943 179.011 27.7557Z" fill="#222222" fill-opacity="0.42"/>
<defs>
<clipPath id="clip0_1014_1283">
<rect width="48.142" height="48" fill="white" transform="translate(0.715942 0.5)"/>
</clipPath>
</defs>
</svg>
