<svg width="22" height="22" viewBox="0 0 22 22" fill="none" xmlns="http://www.w3.org/2000/svg">
<g id="note-edit">
<path id="Vector" d="M9.62496 20.1667H8.70829C5.68345 20.1667 4.17102 20.1667 3.23133 19.227C2.29163 18.2872 2.29163 16.7748 2.29163 13.75V9.16667C2.29163 6.14182 2.29163 4.6294 3.23133 3.6897C4.17102 2.75 5.68345 2.75 8.70829 2.75H11.4583C14.4831 2.75 15.9955 2.75 16.9353 3.6897C17.875 4.6294 17.875 6.14182 17.875 9.16667V10.0833" stroke="#64748B" stroke-width="1.5" stroke-linecap="round" stroke-linejoin="round"/>
<path id="Vector_2" d="M18.4854 15.7127L15.4532 18.7449L16.4254 19.7172L19.4577 16.685L18.4854 15.7127ZM13.7968 17.0885L16.829 14.0563L15.8567 13.084L12.8245 16.1163L13.7968 17.0885ZM13.4667 19.3621C13.3059 19.3965 13.1774 19.4239 13.067 19.4444C12.9556 19.4651 12.8825 19.4749 12.833 19.478C12.7821 19.4813 12.7856 19.4753 12.8173 19.4835C12.8605 19.4946 12.9192 19.5224 12.9692 19.5725L11.997 20.5447C12.2937 20.8415 12.6645 20.8666 12.9203 20.8503C13.1637 20.8348 13.4603 20.7695 13.7542 20.7067L13.4667 19.3621ZM11.835 18.7875C11.7722 19.0814 11.7069 19.378 11.6914 19.6214C11.6751 19.8772 11.7002 20.248 11.997 20.5447L12.9692 19.5725C13.0193 19.6225 13.0471 19.6812 13.0582 19.7244C13.0664 19.7561 13.0604 19.7596 13.0637 19.7087C13.0668 19.6592 13.0766 19.5861 13.0973 19.4747C13.1178 19.3643 13.1452 19.2358 13.1796 19.075L11.835 18.7875ZM18.4854 14.0563C18.8222 14.3932 18.8911 14.4705 18.9262 14.5313L20.117 13.8438C19.9686 13.5866 19.7319 13.3584 19.4577 13.084L18.4854 14.0563ZM19.4577 16.685C19.7319 16.4107 19.9686 16.1824 20.117 15.9253L18.9262 15.2378C18.8911 15.2986 18.8222 15.3759 18.4854 15.7127L19.4577 16.685ZM18.9262 14.5313C19.0524 14.7499 19.0524 15.0192 18.9262 15.2378L20.117 15.9253C20.4888 15.2813 20.4888 14.4878 20.117 13.8438L18.9262 14.5313ZM19.4577 13.084C19.1833 12.8098 18.9551 12.5731 18.6979 12.4247L18.0104 13.6155C18.0712 13.6506 18.1485 13.7195 18.4854 14.0563L19.4577 13.084ZM16.829 14.0563C17.1658 13.7195 17.2431 13.6506 17.3039 13.6155L16.6164 12.4247C16.3593 12.5731 16.131 12.8098 15.8567 13.084L16.829 14.0563ZM18.6979 12.4247C18.0539 12.0529 17.2604 12.0529 16.6164 12.4247L17.3039 13.6155C17.5225 13.4893 17.7918 13.4893 18.0104 13.6155L18.6979 12.4247ZM15.4532 18.7449C15.2739 18.9241 15.029 19.0401 14.6809 19.1289C14.5066 19.1734 14.3206 19.2078 14.1133 19.2437C13.9141 19.278 13.6862 19.3152 13.4667 19.3621L13.7542 20.7067C13.9392 20.6671 14.1287 20.6363 14.3474 20.5986C14.558 20.5622 14.7901 20.5201 15.0211 20.4612C15.4838 20.343 15.9989 20.1437 16.4254 19.7172L15.4532 18.7449ZM13.1796 19.075C13.2265 18.8555 13.2637 18.6276 13.298 18.4284C13.3339 18.2211 13.3683 18.0351 13.4128 17.8608C13.5016 17.5127 13.6176 17.2678 13.7968 17.0885L12.8245 16.1163C12.398 16.5428 12.1987 17.0579 12.0805 17.5206C12.0216 17.7516 11.9795 17.9837 11.9431 18.1943C11.9054 18.413 11.8746 18.6025 11.835 18.7875L13.1796 19.075Z" fill="#64748B"/>
<path id="Vector_3" d="M14.6667 1.83331V3.66665M10.0833 1.83331V3.66665M5.5 1.83331V3.66665" stroke="#64748B" stroke-width="1.5" stroke-linecap="round" stroke-linejoin="round"/>
<path id="Vector_4" d="M6.41663 13.75H10.0833M6.41663 9.16669H13.75" stroke="#64748B" stroke-width="1.5" stroke-linecap="round"/>
</g>
</svg>
