<svg width="30" height="30" viewBox="0 0 30 30" fill="none" xmlns="http://www.w3.org/2000/svg">
<rect width="30" height="30" fill="#1E1E1E"/>
<rect width="1440" height="900" transform="translate(-609 -234)" fill="#F9F9F9"/>
<rect width="1190" height="1626" transform="translate(-359 -234)" fill="#F9F9F9"/>
<rect x="-327" y="-34" width="1126" height="178" rx="12" fill="white"/>
<rect width="245.5" height="167" transform="translate(-33.5 -28.5)" fill="white"/>
<rect x="-9.5" y="-8.5" width="48" height="48" rx="12" fill="#FFFBEB"/>
<path d="M8.75 13.75H11.25V16.25H8.75V13.75ZM8.75 18.75H11.25V21.25H8.75V18.75ZM13.75 13.75H16.25V16.25H13.75V13.75ZM13.75 18.75H16.25V21.25H13.75V18.75ZM18.75 13.75H21.25V16.25H18.75V13.75ZM18.75 18.75H21.25V21.25H18.75V18.75Z" fill="#D6A12B"/>
<path d="M6.25 27.5H23.75C25.1287 27.5 26.25 26.3787 26.25 25V7.5C26.25 6.12125 25.1287 5 23.75 5H21.25V2.5H18.75V5H11.25V2.5H8.75V5H6.25C4.87125 5 3.75 6.12125 3.75 7.5V25C3.75 26.3787 4.87125 27.5 6.25 27.5ZM23.75 10L23.7512 25H6.25V10H23.75Z" fill="#D6A12B"/>
</svg>
