<svg width="51" height="51" viewBox="0 0 51 51" fill="none" xmlns="http://www.w3.org/2000/svg">
<rect width="51" height="51" rx="25.5" fill="url(#paint0_linear_1014_882)"/>
<path d="M25.5 22.875C24.5386 22.875 23.6166 23.2569 22.9368 23.9367C22.257 24.6166 21.875 25.5386 21.875 26.5C21.875 27.4614 22.257 28.3834 22.9368 29.0633C23.6166 29.7431 24.5386 30.125 25.5 30.125C26.4615 30.125 27.3835 29.7431 28.0633 29.0633C28.7431 28.3834 29.125 27.4614 29.125 26.5C29.125 25.5386 28.7431 24.6166 28.0633 23.9367C27.3835 23.2569 26.4615 22.875 25.5 22.875ZM25.5 32.5417C23.8977 32.5417 22.361 31.9051 21.2279 30.7721C20.0949 29.6391 19.4584 28.1024 19.4584 26.5C19.4584 24.8977 20.0949 23.3609 21.2279 22.2279C22.361 21.0949 23.8977 20.4583 25.5 20.4583C27.1024 20.4583 28.6391 21.0949 29.7721 22.2279C30.9052 23.3609 31.5417 24.8977 31.5417 26.5C31.5417 28.1024 30.9052 29.6391 29.7721 30.7721C28.6391 31.9051 27.1024 32.5417 25.5 32.5417ZM25.5 17.4375C19.4584 17.4375 14.2988 21.1954 12.2084 26.5C14.2988 31.8046 19.4584 35.5625 25.5 35.5625C31.5417 35.5625 36.7013 31.8046 38.7917 26.5C36.7013 21.1954 31.5417 17.4375 25.5 17.4375Z" fill="white"/>
<defs>
<linearGradient id="paint0_linear_1014_882" x1="0" y1="51" x2="51" y2="51" gradientUnits="userSpaceOnUse">
<stop stop-color="#8D133E"/>
<stop offset="1" stop-color="#D6A12B"/>
</linearGradient>
</defs>
</svg>
