<svg width="51" height="51" viewBox="0 0 51 51" fill="none" xmlns="http://www.w3.org/2000/svg">
<rect width="51" height="51" rx="25.5" fill="url(#paint0_linear_1014_890)"/>
<mask id="mask0_1014_890" style="mask-type:luminance" maskUnits="userSpaceOnUse" x="14" y="12" width="23" height="27">
<path d="M32.6538 30.2691C32.6549 29.2624 32.443 28.2669 32.032 27.348C31.6211 26.429 31.0203 25.6074 30.2692 24.9371C28.959 23.7618 27.2602 23.1128 25.5 23.1153C23.7398 23.1128 22.041 23.7618 20.7308 24.9371C19.9797 25.6074 19.379 26.429 18.968 27.348C18.557 28.2669 18.3451 29.2624 18.3462 30.2691C18.3462 34.2198 21.5493 37.4229 25.5 37.4229C29.4507 37.4229 32.6538 34.2198 32.6538 30.2691Z" fill="white"/>
<path d="M20.731 13.5769H30.2694V24.9372C28.9591 23.7618 27.2603 23.1128 25.5002 23.1153C23.74 23.1128 22.0412 23.7618 20.731 24.9372V13.5769Z" fill="white"/>
<path d="M20.7308 13.5769H30.2692M20.7308 13.5769H15.9615V19.5384L20.7308 23.1153M20.7308 13.5769V23.1153M30.2692 13.5769H35.0384V19.5384L30.2692 23.1153M30.2692 13.5769V23.1153M20.7308 23.1153V24.9372M30.2692 23.1153V24.9372M20.7308 24.9372C22.041 23.7618 23.7398 23.1128 25.5 23.1153C27.3319 23.1153 29.0035 23.8039 30.2692 24.9372M20.7308 24.9372C19.9797 25.6074 19.3789 26.429 18.9679 27.348C18.5569 28.2669 18.345 29.2625 18.3462 30.2691C18.3462 34.2198 21.5493 37.4229 25.5 37.4229C29.4507 37.4229 32.6538 34.2198 32.6538 30.2691C32.6549 29.2625 32.443 28.2669 32.032 27.348C31.621 26.429 31.0202 25.6074 30.2692 24.9372" stroke="white" stroke-width="2" stroke-linecap="round" stroke-linejoin="round"/>
<path d="M30.2692 13.5769H35.0384V19.5384L30.2692 23.1153M20.7308 13.5769H15.9615V19.5384L20.7308 23.1153" stroke="white" stroke-width="2" stroke-linecap="round" stroke-linejoin="round"/>
<path d="M32.6538 30.2691C32.6549 29.2624 32.443 28.2669 32.032 27.348C31.6211 26.429 31.0203 25.6074 30.2692 24.9371C28.959 23.7618 27.2602 23.1128 25.5 23.1153C23.7398 23.1128 22.041 23.7618 20.7308 24.9371C19.9797 25.6074 19.379 26.429 18.968 27.348C18.557 28.2669 18.3451 29.2624 18.3462 30.2691C18.3462 34.2198 21.5493 37.4229 25.5 37.4229C29.4507 37.4229 32.6538 34.2198 32.6538 30.2691Z" fill="white" stroke="white" stroke-width="2" stroke-linecap="round" stroke-linejoin="round"/>
<path d="M20.731 13.5769H30.2694V24.9372C28.9591 23.7618 27.2603 23.1128 25.5002 23.1153C23.74 23.1128 22.0412 23.7618 20.731 24.9372V13.5769Z" fill="white" stroke="white" stroke-width="2" stroke-linecap="round" stroke-linejoin="round"/>
<path d="M25.5002 33.25V27.2885L24.3079 27.8846M25.5002 33.25H26.6925M25.5002 33.25H24.3079" stroke="black" stroke-width="2" stroke-linecap="round" stroke-linejoin="round"/>
</mask>
<g mask="url(#mask0_1014_890)">
<path d="M11.1924 11.1924H39.8076V39.8076H11.1924V11.1924Z" fill="white"/>
</g>
<defs>
<linearGradient id="paint0_linear_1014_890" x1="0" y1="51" x2="51" y2="51" gradientUnits="userSpaceOnUse">
<stop stop-color="#8D133E"/>
<stop offset="1" stop-color="#D6A12B"/>
</linearGradient>
</defs>
</svg>
