<svg width="51" height="51" viewBox="0 0 51 51" fill="none" xmlns="http://www.w3.org/2000/svg">
<rect width="51" height="51" rx="25.5" fill="url(#paint0_linear_1014_872)"/>
<g clip-path="url(#clip0_1014_872)">
<path d="M35.8647 16.1353H35.863L38.796 16.7215C38.9535 16.753 39.083 16.8685 39.1285 17.0243C39.1515 17.0999 39.1535 17.1804 39.1344 17.2571C39.1153 17.3339 39.0758 17.404 39.02 17.46L36.6173 19.8645C36.3298 20.1515 35.9402 20.3126 35.534 20.3125H33.5425L28.5375 25.3193C28.633 25.6798 28.6505 26.0566 28.589 26.4244C28.5275 26.7923 28.3883 27.1428 28.1806 27.4526C27.973 27.7625 27.7017 28.0245 27.3849 28.2213C27.0681 28.418 26.7129 28.545 26.3432 28.5938C25.9734 28.6426 25.5975 28.612 25.2405 28.504C24.8834 28.3961 24.5535 28.2134 24.2727 27.9679C23.9918 27.7225 23.7665 27.4201 23.6117 27.0807C23.4569 26.7414 23.3762 26.373 23.375 26C23.3753 25.5973 23.4681 25.2001 23.6464 24.839C23.8246 24.4779 24.0835 24.1626 24.403 23.9176C24.7225 23.6725 25.0941 23.5041 25.4891 23.4255C25.884 23.3469 26.2917 23.3602 26.6807 23.4643L31.6875 18.4558V16.466C31.6875 16.06 31.8485 15.6698 32.1355 15.3828L34.54 12.9783C34.596 12.9225 34.6662 12.883 34.7429 12.8639C34.8196 12.8447 34.9001 12.8468 34.9757 12.8698C35.1315 12.9153 35.247 13.0448 35.2785 13.2023L35.8647 16.1353Z" fill="white"/>
<path d="M15.5 26C15.5018 27.5014 15.8256 28.985 16.4495 30.3507C17.0734 31.7164 17.983 32.9323 19.1168 33.9166C20.2506 34.9008 21.5823 35.6305 23.0221 36.0563C24.4619 36.4821 25.9763 36.5942 27.463 36.385C28.9498 36.1758 30.3745 35.6502 31.6408 34.8436C32.9072 34.037 33.9859 32.9682 34.804 31.7092C35.6222 30.4503 36.1609 29.0306 36.3837 27.5458C36.6066 26.061 36.5084 24.5456 36.0958 23.102C36.0378 22.9334 36.0148 22.7547 36.0282 22.5768C36.0415 22.399 36.0909 22.2258 36.1733 22.0676C36.2558 21.9095 36.3695 21.7698 36.5077 21.657C36.6458 21.5442 36.8055 21.4607 36.9769 21.4116C37.1483 21.3625 37.328 21.3489 37.5049 21.3714C37.6818 21.3939 37.8522 21.4522 38.0059 21.5428C38.1595 21.6333 38.2931 21.7541 38.3986 21.8979C38.5041 22.0417 38.5791 22.2055 38.6193 22.3793C39.4182 25.1749 39.2664 28.1567 38.1878 30.8568C37.1092 33.557 35.1647 35.8226 32.6595 37.2984C30.1543 38.7741 27.23 39.3765 24.3455 39.0109C21.461 38.6454 18.7794 37.3326 16.7215 35.2785C14.6659 33.2211 13.3517 30.5393 12.9853 27.6541C12.6189 24.769 13.221 21.8438 14.6972 19.3379C16.1733 16.832 18.4399 14.8873 21.141 13.8091C23.8421 12.7308 26.8248 12.5802 29.6208 13.3808C29.9537 13.4781 30.2346 13.7032 30.402 14.007C30.5694 14.3108 30.6098 14.6685 30.5143 15.0019C30.4188 15.3354 30.1952 15.6175 29.8923 15.7865C29.5895 15.9556 29.232 15.9979 28.898 15.9043C27.3345 15.4557 25.6882 15.3764 24.0889 15.6727C22.4895 15.969 20.9809 16.6327 19.6818 17.6116C18.3828 18.5904 17.3288 19.8577 16.6032 21.3134C15.8775 22.7691 15.4998 24.3735 15.5 26Z" fill="white"/>
<path d="M20.75 26C20.7501 26.9565 21.0113 27.8949 21.5056 28.7138C21.9998 29.5328 22.7082 30.2013 23.5545 30.6472C24.4007 31.0931 25.3526 31.2995 26.3076 31.2441C27.2625 31.1887 28.1842 30.8737 28.9732 30.333C29.7621 29.7909 30.3878 29.0435 30.7826 28.1715C31.1774 27.2995 31.3263 26.3362 31.2132 25.3857C31.1826 25.1551 31.2141 24.9204 31.3043 24.706C31.3945 24.4915 31.5403 24.305 31.7266 24.1656C31.9129 24.0262 32.1329 23.939 32.3642 23.9129C32.5954 23.8868 32.8293 23.9228 33.042 24.0172C33.2546 24.1104 33.4387 24.2583 33.5755 24.4458C33.7123 24.6334 33.7969 24.8538 33.8207 25.0847C34.0109 26.7089 33.6907 28.352 32.9046 29.7859C32.1186 31.2199 30.9056 32.3735 29.4341 33.0868C27.9626 33.8001 26.3055 34.0376 24.6929 33.7663C23.0803 33.4951 21.5921 32.7286 20.4349 31.5731C19.2777 30.4177 18.5089 28.9307 18.2352 27.3185C17.9615 25.7063 18.1965 24.0489 18.9076 22.5763C19.6186 21.1037 20.7704 19.889 22.2032 19.1007C23.6359 18.3125 25.2785 17.9898 26.903 18.1775C27.0769 18.1936 27.2459 18.2443 27.4 18.3266C27.5541 18.4089 27.6902 18.5211 27.8004 18.6567C27.9105 18.7923 27.9925 18.9485 28.0415 19.1161C28.0905 19.2838 28.1056 19.4596 28.0858 19.6331C28.066 19.8067 28.0117 19.9746 27.9262 20.1269C27.8407 20.2792 27.7256 20.4129 27.5877 20.5202C27.4499 20.6275 27.292 20.7062 27.1233 20.7516C26.9546 20.7971 26.7786 20.8084 26.6055 20.785C25.8699 20.6996 25.1245 20.7707 24.4184 20.9938C23.7123 21.2169 23.0613 21.5869 22.5083 22.0794C21.9553 22.5719 21.5127 23.1759 21.2097 23.8516C20.9066 24.5273 20.75 25.2594 20.75 26Z" fill="white"/>
</g>
<defs>
<linearGradient id="paint0_linear_1014_872" x1="0" y1="51" x2="51" y2="51" gradientUnits="userSpaceOnUse">
<stop stop-color="#8D133E"/>
<stop offset="1" stop-color="#D6A12B"/>
</linearGradient>
<clipPath id="clip0_1014_872">
<rect width="28" height="28" fill="white" transform="translate(12 12)"/>
</clipPath>
</defs>
</svg>
