<svg width="29" height="29" viewBox="0 0 29 29" fill="none" xmlns="http://www.w3.org/2000/svg">
<path d="M22.3541 16.9287L22.3662 16.9154M9.06242 16.9287L9.0745 16.9154M4.83325 21.75V12.0833C4.83325 11.4424 5.08786 10.8277 5.54108 10.3745C5.99429 9.92124 6.60898 9.66663 7.24992 9.66663H24.1666C24.8075 9.66663 25.4222 9.92124 25.8754 10.3745C26.3286 10.8277 26.5833 11.4424 26.5833 12.0833V21.75C26.5833 22.3909 26.3286 23.0056 25.8754 23.4588C25.4222 23.912 24.8075 24.1666 24.1666 24.1666H7.24992C6.60898 24.1666 5.99429 23.912 5.54108 23.4588C5.08786 23.0056 4.83325 22.3909 4.83325 21.75Z" stroke="#D6A12B" stroke-width="1.5" stroke-linecap="round" stroke-linejoin="round"/>
<path d="M4.83325 19.3333H3.62492C2.98398 19.3333 2.36929 19.0787 1.91608 18.6255C1.46286 18.1723 1.20825 17.5576 1.20825 16.9166V7.24998C1.20825 6.60904 1.46286 5.99435 1.91608 5.54114C2.36929 5.08793 2.98398 4.83331 3.62492 4.83331H20.5416C21.1825 4.83331 21.7972 5.08793 22.2504 5.54114C22.7036 5.99435 22.9583 6.60904 22.9583 7.24998V9.66665M15.7083 19.3333C15.0673 19.3333 14.4526 19.0787 13.9994 18.6255C13.5462 18.1723 13.2916 17.5576 13.2916 16.9166C13.2916 16.2757 13.5462 15.661 13.9994 15.2078C14.4526 14.7546 15.0673 14.5 15.7083 14.5C16.3492 14.5 16.9639 14.7546 17.4171 15.2078C17.8703 15.661 18.1249 16.2757 18.1249 16.9166C18.1249 17.5576 17.8703 18.1723 17.4171 18.6255C16.9639 19.0787 16.3492 19.3333 15.7083 19.3333Z" stroke="#D6A12B" stroke-width="1.5" stroke-linecap="round" stroke-linejoin="round"/>
</svg>
