<svg width="155" height="45" viewBox="0 0 155 45" fill="none" xmlns="http://www.w3.org/2000/svg">
<path d="M53.1211 15.2301C53.1211 23.0847 61.5648 24.145 61.5648 29.8003C61.5648 31.7639 60.7008 32.4708 59.3262 32.4708C57.9517 32.4708 57.0877 31.7639 57.0877 29.8003V27.8367H53.0033V29.5254C53.0033 33.9239 55.2026 36.4374 59.444 36.4374C63.6855 36.4374 65.8848 33.9239 65.8848 29.5254C65.8848 21.6708 57.4411 20.6105 57.4411 14.9552C57.4411 12.9916 58.2266 12.2454 59.6011 12.2454C60.9757 12.2454 61.7611 12.9916 61.7611 14.9552V16.0941H65.8455V15.2301C65.8455 10.8316 63.6855 8.31812 59.4833 8.31812C55.2811 8.31812 53.1211 10.8316 53.1211 15.2301Z" fill="#222222" fill-opacity="0.42"/>
<path d="M72.1365 36.1232H76.4565V27.0119L81.9154 8.6323H77.7917L74.4928 21.1603L71.1939 8.6323H66.6776L72.1365 27.0119V36.1232Z" fill="#222222" fill-opacity="0.42"/>
<path d="M89.6319 8.6323H83.6231V36.1232H87.3933V16.6832L90.6137 36.1232H94.698L97.6828 16.4083V36.1232H101.767V8.6323H95.7584L92.813 28.1508L89.6319 8.6323Z" fill="#222222" fill-opacity="0.42"/>
<path d="M103.653 12.5596H108.169V36.1232H112.489V12.5596H117.006V8.6323H103.653V12.5596Z" fill="#222222" fill-opacity="0.42"/>
<path d="M132.339 36.1232C131.907 35.1021 131.868 34.1203 131.868 32.785V28.5436C131.868 25.6767 131.161 23.5952 129.001 22.6919C130.926 21.7887 131.829 19.9428 131.829 17.1152V14.9552C131.829 10.7138 129.905 8.6323 125.427 8.6323H118.908V36.1232H123.228V24.9305H124.721C126.684 24.9305 127.548 25.873 127.548 28.4258V32.7458C127.548 34.9843 127.705 35.4163 127.941 36.1232H132.339ZM125.31 12.5596C126.841 12.5596 127.509 13.4236 127.509 15.3872V18.097C127.509 20.2963 126.527 21.0032 124.917 21.0032H123.228V12.5596H125.31Z" fill="#222222" fill-opacity="0.42"/>
<path d="M134.709 36.1232H139.029V8.6323H134.709V36.1232Z" fill="#222222" fill-opacity="0.42"/>
<path d="M150.632 25.873V29.8003C150.632 31.7639 149.768 32.4708 148.393 32.4708C147.019 32.4708 146.155 31.7639 146.155 29.8003V14.9552C146.155 12.9916 147.019 12.2454 148.393 12.2454C149.768 12.2454 150.632 12.9916 150.632 14.9552V17.9007H154.716V15.2301C154.716 10.8316 152.517 8.31812 148.275 8.31812C144.034 8.31812 141.835 10.8316 141.835 15.2301V29.5254C141.835 33.9239 144.034 36.4374 148.275 36.4374C152.517 36.4374 154.716 33.9239 154.716 29.5254V25.873H150.632Z" fill="#222222" fill-opacity="0.42"/>
<g clip-path="url(#clip0_1014_1282)">
<path fill-rule="evenodd" clip-rule="evenodd" d="M15.4831 14.5168L13.1225 18.598L10.8763 14.7018L13.2252 10.6206H29.6322L33.1159 4.57813H9.73857L5.13184 12.5687C8.58763 18.5388 12.0381 24.5089 15.4831 30.479H22.4505C20.7006 27.4499 18.9516 24.4213 17.2036 21.3932L16.7192 20.5549H32.6872L39.5547 32.4461L32.6872 44.3183H7.49248L0.695428 32.3316L4.10865 26.4036L6.36943 30.2984L5.14653 32.4315L9.75326 40.4221H30.4278L35.0493 32.4315L30.4425 24.4409H23.4752C24.953 27.0149 26.4318 29.5883 27.9116 32.1613L28.079 32.4271L26.9559 34.3752H13.2369C9.08432 27.1944 4.93707 20.0191 0.795209 12.8491L0.639587 12.5643L7.49248 0.673096H39.8806L31.8959 14.5168H15.4831Z" fill="#222222" fill-opacity="0.42"/>
</g>
<defs>
<clipPath id="clip0_1014_1282">
<rect width="39.2425" height="43.6364" fill="white" transform="translate(0.639648 0.681763)"/>
</clipPath>
</defs>
</svg>
