<svg width="177" height="45" viewBox="0 0 177 45" fill="none" xmlns="http://www.w3.org/2000/svg">
<g clip-path="url(#clip0_1014_1284)">
<path d="M40.1406 3.19791C40.3951 3.2875 40.6167 3.45138 40.777 3.66835C40.9373 3.88531 41.0288 4.14538 41.0396 4.41491C41.1778 5.85424 41.2368 7.3001 41.2161 8.74591C41.2009 9.40917 41.1857 10.0724 41.1415 10.7357C40.8921 10.6323 40.6563 10.5288 40.4053 10.4314C39.7724 10.182 39.1533 9.94618 38.5189 9.72408C38.5342 9.38636 38.5494 9.06233 38.5494 8.72309C38.5631 7.64756 38.5342 6.55683 38.4459 5.4524C37.4145 5.12837 36.339 4.83325 35.2513 4.56855C33.8822 4.24453 32.513 3.97832 31.1257 3.78664C30.3453 3.68471 29.5938 3.59495 28.8727 3.52193C28.1516 3.44891 27.3834 3.4048 26.603 3.36981C25.9945 3.3546 25.424 3.3409 24.8064 3.3409L23.9074 3.3546C23.6412 3.3546 23.3323 3.36981 23.0083 3.36981C22.2279 3.40023 21.4764 3.45804 20.7386 3.52193C20.0008 3.58583 19.266 3.68471 18.4856 3.78664C17.1165 3.97832 15.7306 4.24301 14.36 4.56855C13.2692 4.83325 12.2089 5.12837 11.1653 5.4524C10.9858 7.87403 11.0501 10.3076 11.3571 12.7164C11.52 14.0639 11.7561 15.4015 12.0644 16.7233C12.2409 17.4748 12.4478 18.2263 12.6729 18.9474L12.6882 19.0067L12.7018 19.0661L12.717 19.1254L12.7459 19.1832L12.7612 19.2425L12.7763 19.3019L12.7916 19.3612L12.8493 19.5224V19.5376L12.8646 19.5955L12.968 19.8754L12.9817 19.9347L13.0715 20.1705L13.0852 20.2146C13.5402 21.5339 14.0668 22.8273 14.6627 24.0892L14.6916 24.1334L14.7069 24.179L14.7205 24.2079L14.7509 24.252L14.7646 24.2961L14.7799 24.3402L14.8088 24.3691C15.0309 24.8255 15.2652 25.2819 15.5025 25.7383C15.6789 26.0334 15.8401 26.3468 16.0029 26.6221C16.1946 26.9619 16.3716 27.2565 16.5338 27.506C17.0343 28.3168 17.5637 29.1124 18.1251 29.8791C18.6864 30.6458 19.2584 31.3821 19.8928 32.1184C20.1291 32.3983 20.3943 32.6929 20.6884 33.0022C20.9683 33.3065 21.233 33.6107 21.484 33.8709C22.132 34.5341 22.809 35.1685 23.4875 35.7861L23.7674 36.0219C23.5757 36.174 23.3841 36.3262 23.1787 36.4783C22.6478 36.8753 22.1031 37.2587 21.557 37.642C18.6134 35.0032 16.0808 31.939 14.0435 28.5511V28.5358L14.0283 28.5222L14.0132 28.5069C13.896 28.3153 13.7925 28.1236 13.6891 27.9623C13.5126 27.6383 13.3209 27.3128 13.1597 27.004C12.6729 26.1201 12.2302 25.2074 11.8043 24.249C11.3783 23.2906 11.0087 22.3489 10.6695 21.4057C10.1956 20.0725 9.79232 18.7152 9.46151 17.3394C8.46065 13.1067 8.16212 8.73835 8.57773 4.40882C8.59019 4.13889 8.68401 3.87905 8.84692 3.66346C9.00984 3.44788 9.23421 3.28664 9.49048 3.20095C10.89 2.72936 12.32 2.3171 13.7637 1.96265C15.1784 1.63863 16.6358 1.35416 18.1251 1.13814C18.8857 1.03469 19.6859 0.946462 20.5256 0.873442C21.3365 0.7989 22.1321 0.741092 22.9125 0.710667C23.2076 0.710667 23.5209 0.695458 23.8556 0.695458L24.814 0.681763L25.7709 0.695458C26.1101 0.695458 26.4341 0.710667 26.714 0.710667C27.5096 0.741092 28.3053 0.7989 29.1161 0.873442C29.9558 0.946462 30.7514 1.03469 31.5029 1.13814C33.0044 1.35872 34.4633 1.63863 35.8781 1.96265C37.3081 2.3171 38.7365 2.72328 40.1512 3.20095L40.1406 3.19791ZM31.506 29.8806C32.0369 29.1291 32.5708 28.3594 33.0531 27.5668C33.2195 27.2679 33.4925 27.0427 33.8176 26.9362C34.1427 26.8296 34.496 26.8494 34.8071 26.9918C37.3673 28.2155 39.6914 29.8815 41.6725 31.913C41.9043 32.1267 42.0534 32.4152 42.0937 32.7278C42.1341 33.0405 42.0631 33.3574 41.8931 33.6229C41.4808 34.271 41.0245 34.9479 40.5681 35.6112C40.1117 36.2744 39.6097 36.9225 39.1244 37.5416C38.77 37.998 38.3866 38.4696 37.9743 38.9412C37.6214 39.3535 37.2229 39.8098 36.7817 40.2966C36.1625 40.9751 35.5647 41.5927 34.9562 42.1967H34.941C34.3522 42.7869 33.724 43.3619 33.0699 43.9354C32.8769 44.1234 32.632 44.2493 32.3668 44.2967C32.1016 44.3442 31.8282 44.3111 31.582 44.2017C29.6428 43.3114 27.7757 42.2718 25.9975 41.0922C26.2333 40.9158 26.4691 40.7393 26.7049 40.5476C27.2054 40.1491 27.7074 39.752 28.1775 39.3306C29.3791 40.0944 30.624 40.7877 31.906 41.4071C32.3031 41.039 32.6864 40.6708 33.085 40.2875C33.7026 39.679 34.2777 39.0948 34.8086 38.5046C35.1615 38.1365 35.5297 37.6953 35.9434 37.2237C36.2964 36.7962 36.6646 36.3535 37.019 35.8835C37.5043 35.2932 37.9469 34.6893 38.3744 34.0701C38.6102 33.7659 38.8308 33.4221 39.0514 33.0981C38.3883 32.4623 37.6789 31.8765 36.9292 31.3456C36.2191 30.8307 35.4762 30.3627 34.7052 29.9445C34.366 30.4602 34.013 30.9622 33.6585 31.4475C33.0409 32.3025 32.4066 33.0981 31.7585 33.8648C31.4634 34.2025 31.1835 34.5128 30.9188 34.8079C30.8001 34.9601 30.6678 35.0879 30.5354 35.2339L30.5202 35.2491L30.5065 35.2643L30.4913 35.278L30.4761 35.2932L30.4624 35.3084L30.4472 35.3237L30.432 35.3374L30.4031 35.3678V35.3815C28.9963 36.8632 27.4848 38.242 25.8804 39.5071C23.4559 41.3688 20.8257 42.946 18.0414 44.2078C17.7883 44.3213 17.5064 44.3538 17.2341 44.301C16.9618 44.2482 16.7125 44.1126 16.5202 43.9126C15.8706 43.3528 15.2667 42.7778 14.6627 42.2028C14.0542 41.614 13.4549 40.9857 12.8372 40.3027C12.3809 39.8159 11.9837 39.3595 11.6293 38.9473C11.2322 38.4757 10.8489 38.0041 10.4808 37.5477C9.99398 36.9149 9.52241 36.2805 9.05082 35.6173C8.57923 34.954 8.13808 34.277 7.72582 33.629C7.40027 33.1133 7.0625 32.5641 6.72327 31.9936C6.41901 31.4338 6.10412 30.874 5.81051 30.3203C5.42868 29.6129 5.07426 28.8903 4.73502 28.1692C4.39578 27.4482 4.10219 26.724 3.79337 25.9725C3.23355 24.6034 2.74676 23.2039 2.31929 21.7739C1.89182 20.3439 1.53889 18.9018 1.25442 17.4429C1.19904 17.1742 1.22892 16.8949 1.33991 16.644C1.45091 16.3931 1.63745 16.1831 1.87354 16.0433C3.58885 14.8241 5.3965 13.7402 7.28007 12.8016C7.35309 13.5089 7.44282 14.2011 7.55995 14.8933C7.58886 15.1291 7.63298 15.3649 7.67709 15.6007C6.42665 16.2546 5.21663 16.9831 4.0535 17.7821C4.28929 18.8866 4.56919 19.9621 4.87801 21.0087C5.27657 22.3641 5.74822 23.6891 6.26392 24.9639C6.54383 25.6561 6.83742 26.3483 7.16144 27.0405C7.48547 27.7326 7.81099 28.4096 8.16392 29.0592C8.44383 29.6053 8.73899 30.124 9.03411 30.6504C9.32771 31.1372 9.6426 31.6529 9.97575 32.1975C10.3895 32.8456 10.8018 33.4799 11.2292 34.0686C11.6567 34.6573 12.1131 35.2856 12.5847 35.882C12.9528 36.352 13.3058 36.7947 13.6739 37.2222C14.0725 37.6938 14.4558 38.1349 14.7935 38.5031C15.3397 39.0933 15.9132 39.682 16.5324 40.286C16.9157 40.6693 17.3143 41.0375 17.6961 41.3919C19.913 40.3255 22.0159 39.037 23.9727 37.5462C26.8407 35.3713 29.3769 32.7906 31.5014 29.8852L31.506 29.8806ZM47.7286 16.0373C47.9639 16.1785 48.1505 16.3882 48.2636 16.6382C48.3766 16.8883 48.4108 17.1669 48.3615 17.4368C48.0663 18.8957 47.7134 20.3393 47.2859 21.7678C46.8584 23.1963 46.3732 24.5973 45.827 25.9664C45.7717 26.103 45.6917 26.2283 45.5912 26.3361C45.3601 26.6041 45.0327 26.7703 44.68 26.7988C44.3273 26.8273 43.9775 26.7157 43.7064 26.4882C42.7109 25.6217 41.6572 24.8242 40.5529 24.1014C39.4677 23.3915 38.3353 22.7567 37.1635 22.2014C36.8562 22.0627 36.6118 21.8142 36.4783 21.5046C36.3449 21.1949 36.3321 20.8466 36.4425 20.528C36.8831 19.2882 37.2519 18.0239 37.5468 16.7416C37.6792 16.2411 37.7826 15.7391 37.8861 15.2203C38.2253 15.3527 38.5494 15.4866 38.8886 15.6326C39.3891 15.8547 39.8896 16.089 40.3901 16.3263C40.317 16.6792 40.238 17.0185 40.1543 17.3577C39.92 18.345 39.6538 19.3353 39.345 20.3044C40.2578 20.7759 41.1568 21.3053 42.0254 21.8652C42.6887 22.3078 43.3519 22.7779 43.9863 23.2647C44.251 22.5284 44.502 21.7769 44.7226 21.0117C45.0466 19.9651 45.3113 18.882 45.5623 17.7852C43.6289 16.4632 41.5711 15.3331 39.418 14.411C38.0919 13.8379 36.7343 13.3407 35.3517 12.9217C34.0883 12.5402 32.8043 12.2304 31.506 11.9938C30.5932 11.8325 29.65 11.7002 28.6917 11.5967C27.7333 11.4933 26.7916 11.434 25.8485 11.4051L25.3191 11.3898H24.2877L23.772 11.4051C22.8288 11.434 21.8704 11.4933 20.9272 11.5967C19.984 11.7002 19.0272 11.8325 18.0992 11.9938C16.8168 12.2296 15.5359 12.5536 14.2535 12.9217C13.7667 13.0739 13.2814 13.226 12.7946 13.3933C12.7505 13.1134 12.7064 12.8487 12.6775 12.5688C12.5892 11.936 12.5254 11.3168 12.4858 10.6825C16.4609 9.36821 20.6212 8.70051 24.8079 8.70483C29.9867 8.71194 35.115 9.72242 39.9094 11.6804C42.6744 12.8325 45.2992 14.2958 47.7331 16.0418L47.7286 16.0373ZM23.1817 27.6916C22.9612 27.4116 22.7695 27.1606 22.593 26.9401C21.1911 25.0208 20.0006 22.9556 19.0424 20.7805C18.9101 20.4869 18.7762 20.1918 18.6591 19.8967C18.5419 19.6016 18.4522 19.3521 18.3548 19.0722C18.3127 18.9749 18.283 18.8726 18.2666 18.7679C18.2352 18.5946 18.2386 18.4169 18.2766 18.2449C18.3146 18.073 18.3865 17.9104 18.488 17.7665C18.5895 17.6227 18.7187 17.5004 18.8679 17.407C19.0172 17.3136 19.1835 17.2508 19.3573 17.2223C19.6372 17.163 19.9657 17.1189 20.3004 17.0702L21.2573 16.9363C21.8475 16.8785 22.4363 16.8344 23.0402 16.7842C23.6442 16.734 24.2572 16.7401 24.8094 16.7401C25.3616 16.7401 25.958 16.7538 26.5908 16.7842C27.1993 16.8283 27.785 16.8724 28.3601 16.9363L29.3169 17.0702C29.6713 17.1143 29.9802 17.1584 30.2753 17.2223C30.3505 17.2344 30.4244 17.2538 30.4958 17.2801C30.8293 17.4005 31.1016 17.6477 31.2535 17.968C31.4054 18.2883 31.4245 18.6557 31.3067 18.99C31.188 19.2942 31.0709 19.6076 30.9522 19.9028C30.8336 20.1979 30.7164 20.493 30.5841 20.7866C30.1055 21.8707 29.5692 22.9285 28.9776 23.9554C28.3833 24.9896 27.7291 25.9882 27.0183 26.9461C26.7972 27.2392 26.606 27.4897 26.4448 27.6976C26.1938 28.0019 26.0021 28.2575 25.8363 28.4339C25.7844 28.4998 25.7246 28.559 25.6583 28.6104C25.5245 28.7231 25.3696 28.8081 25.2026 28.8603C25.0356 28.9125 24.8599 28.9309 24.6857 28.9145C24.5116 28.8981 24.3424 28.8471 24.1881 28.7646C24.0338 28.6821 23.8975 28.5697 23.7872 28.4339C23.5666 28.1829 23.3749 27.9471 23.1787 27.6976L23.1817 27.6916Z" fill="#222222" fill-opacity="0.42"/>
</g>
<path d="M62.6717 19.8338C63.6142 18.3676 65.2724 17.6346 67.6462 17.6346V20.7502C67.3669 20.6978 67.1138 20.6716 66.8869 20.6716C65.6128 20.6716 64.6178 21.0469 63.9022 21.7975C63.1866 22.5306 62.8288 23.5953 62.8288 24.9916V31.7727H59.556V17.7916H62.6717V19.8338Z" fill="#222222" fill-opacity="0.42"/>
<path d="M83.4379 24.8607C83.4379 25.0876 83.4205 25.4106 83.3856 25.8295H72.4154C72.6074 26.8593 73.1048 27.6796 73.9078 28.2906C74.7281 28.884 75.7405 29.1807 76.9448 29.1807C78.4809 29.1807 79.7463 28.6746 80.7412 27.6622L82.4954 29.6782C81.867 30.4287 81.0728 30.996 80.1128 31.38C79.1528 31.764 78.0707 31.956 76.8663 31.956C75.3303 31.956 73.9776 31.6506 72.8081 31.0396C71.6387 30.4287 70.731 29.5822 70.0852 28.5C69.4568 27.4004 69.1427 26.1611 69.1427 24.7822C69.1427 23.4207 69.4481 22.1989 70.059 21.1167C70.6874 20.0171 71.5514 19.1618 72.651 18.5509C73.7507 17.94 74.9899 17.6346 76.3688 17.6346C77.7303 17.6346 78.9434 17.94 80.0081 18.5509C81.0903 19.1444 81.9281 19.9909 82.5216 21.0906C83.1325 22.1727 83.4379 23.4295 83.4379 24.8607ZM76.3688 20.2527C75.3216 20.2527 74.4314 20.5669 73.6983 21.1953C72.9827 21.8062 72.5463 22.6266 72.3892 23.6564H80.3223C80.1827 22.644 79.755 21.8236 79.0394 21.1953C78.3238 20.5669 77.4336 20.2527 76.3688 20.2527Z" fill="#222222" fill-opacity="0.42"/>
<path d="M90.9016 31.956C89.7671 31.956 88.6587 31.8076 87.5765 31.5109C86.4943 31.2142 85.6303 30.8389 84.9845 30.3851L86.2412 27.8978C86.8696 28.3167 87.6201 28.6571 88.4929 28.9189C89.3831 29.1633 90.2558 29.2855 91.1111 29.2855C93.066 29.2855 94.0434 28.7706 94.0434 27.7407C94.0434 27.252 93.7903 26.9116 93.2841 26.7196C92.7954 26.5276 92.0012 26.3444 90.9016 26.1698C89.7496 25.9953 88.8071 25.7946 88.074 25.5676C87.3583 25.3407 86.73 24.948 86.1889 24.3895C85.6652 23.8135 85.4034 23.0193 85.4034 22.0069C85.4034 20.6804 85.9532 19.6244 87.0529 18.8389C88.17 18.036 89.6711 17.6346 91.5561 17.6346C92.5161 17.6346 93.4761 17.748 94.4361 17.9749C95.3961 18.1844 96.1816 18.4724 96.7925 18.8389L95.5358 21.3262C94.3489 20.628 93.0136 20.2789 91.53 20.2789C90.57 20.2789 89.8369 20.4273 89.3307 20.724C88.842 21.0033 88.5976 21.3786 88.5976 21.8498C88.5976 22.3735 88.8594 22.7487 89.3831 22.9756C89.9241 23.1851 90.7532 23.3858 91.8703 23.5778C92.9874 23.7524 93.9038 23.9531 94.6194 24.18C95.3351 24.4069 95.946 24.7909 96.4521 25.332C96.9758 25.8731 97.2376 26.6411 97.2376 27.636C97.2376 28.9451 96.6703 29.9924 95.5358 30.7778C94.4012 31.5633 92.8565 31.956 90.9016 31.956Z" fill="#222222" fill-opacity="0.42"/>
<path d="M113.199 24.8607C113.199 25.0876 113.182 25.4106 113.147 25.8295H102.177C102.369 26.8593 102.866 27.6796 103.669 28.2906C104.489 28.884 105.502 29.1807 106.706 29.1807C108.242 29.1807 109.508 28.6746 110.503 27.6622L112.257 29.6782C111.628 30.4287 110.834 30.996 109.874 31.38C108.914 31.764 107.832 31.956 106.628 31.956C105.092 31.956 103.739 31.6506 102.569 31.0396C101.4 30.4287 100.492 29.5822 99.8466 28.5C99.2182 27.4004 98.904 26.1611 98.904 24.7822C98.904 23.4207 99.2095 22.1989 99.8204 21.1167C100.449 20.0171 101.313 19.1618 102.412 18.5509C103.512 17.94 104.751 17.6346 106.13 17.6346C107.492 17.6346 108.705 17.94 109.769 18.5509C110.852 19.1444 111.689 19.9909 112.283 21.0906C112.894 22.1727 113.199 23.4295 113.199 24.8607ZM106.13 20.2527C105.083 20.2527 104.193 20.5669 103.46 21.1953C102.744 21.8062 102.308 22.6266 102.151 23.6564H110.084C109.944 22.644 109.516 21.8236 108.801 21.1953C108.085 20.5669 107.195 20.2527 106.13 20.2527Z" fill="#222222" fill-opacity="0.42"/>
<path d="M122.758 31.956C121.309 31.956 120.008 31.6506 118.856 31.0396C117.704 30.4287 116.806 29.5822 116.16 28.5C115.514 27.4004 115.191 26.1611 115.191 24.7822C115.191 23.4033 115.514 22.1727 116.16 21.0906C116.806 20.0084 117.696 19.1618 118.83 18.5509C119.982 17.94 121.291 17.6346 122.758 17.6346C124.136 17.6346 125.341 17.9138 126.371 18.4724C127.418 19.0309 128.203 19.8338 128.727 20.8811L126.214 22.3473C125.812 21.7015 125.306 21.2215 124.695 20.9073C124.102 20.5756 123.447 20.4098 122.731 20.4098C121.51 20.4098 120.497 20.8113 119.694 21.6142C118.891 22.3996 118.49 23.4556 118.49 24.7822C118.49 26.1087 118.883 27.1735 119.668 27.9764C120.471 28.7618 121.492 29.1546 122.731 29.1546C123.447 29.1546 124.102 28.9975 124.695 28.6833C125.306 28.3516 125.812 27.8629 126.214 27.2171L128.727 28.6833C128.186 29.7306 127.392 30.5422 126.344 31.1182C125.315 31.6767 124.119 31.956 122.758 31.956Z" fill="#222222" fill-opacity="0.42"/>
<path d="M145.092 17.7916V31.7727H141.976V29.9924C141.453 30.6207 140.798 31.1095 140.013 31.4586C139.227 31.7902 138.381 31.956 137.473 31.956C135.605 31.956 134.131 31.4411 133.048 30.4113C131.984 29.364 131.451 27.8193 131.451 25.7771V17.7916H134.724V25.332C134.724 26.5887 135.003 27.5313 135.562 28.1596C136.138 28.7706 136.949 29.076 137.997 29.076C139.166 29.076 140.091 28.7182 140.772 28.0026C141.47 27.2695 141.819 26.2222 141.819 24.8607V17.7916H145.092Z" fill="#222222" fill-opacity="0.42"/>
<path d="M152.493 19.8338C153.435 18.3676 155.093 17.6346 157.467 17.6346V20.7502C157.188 20.6978 156.935 20.6716 156.708 20.6716C155.434 20.6716 154.439 21.0469 153.723 21.7975C153.008 22.5306 152.65 23.5953 152.65 24.9916V31.7727H149.377V17.7916H152.493V19.8338Z" fill="#222222" fill-opacity="0.42"/>
<path d="M167.993 17.6346C169.355 17.6346 170.568 17.9313 171.633 18.5247C172.715 19.1182 173.561 19.956 174.172 21.0382C174.783 22.1204 175.089 23.3684 175.089 24.7822C175.089 26.196 174.783 27.4527 174.172 28.5524C173.561 29.6346 172.715 30.4724 171.633 31.0658C170.568 31.6593 169.355 31.956 167.993 31.956C167.033 31.956 166.152 31.7902 165.349 31.4586C164.564 31.1269 163.9 30.6295 163.359 29.9662V31.7727H160.244V12.3458H163.516V19.4935C164.075 18.8826 164.729 18.42 165.48 18.1058C166.248 17.7916 167.086 17.6346 167.993 17.6346ZM167.627 29.1546C168.831 29.1546 169.817 28.7531 170.585 27.9502C171.371 27.1473 171.764 26.0913 171.764 24.7822C171.764 23.4731 171.371 22.4171 170.585 21.6142C169.817 20.8113 168.831 20.4098 167.627 20.4098C166.841 20.4098 166.134 20.5931 165.506 20.9596C164.878 21.3087 164.38 21.8149 164.014 22.4782C163.647 23.1415 163.464 23.9095 163.464 24.7822C163.464 25.6549 163.647 26.4229 164.014 27.0862C164.38 27.7495 164.878 28.2644 165.506 28.6309C166.134 28.98 166.841 29.1546 167.627 29.1546Z" fill="#222222" fill-opacity="0.42"/>
<defs>
<clipPath id="clip0_1014_1284">
<rect width="48" height="43.6364" fill="white" transform="translate(0.681885 0.681763)"/>
</clipPath>
</defs>
</svg>
