<svg width="184" height="49" viewBox="0 0 184 49" fill="none" xmlns="http://www.w3.org/2000/svg">
<path d="M75.0546 29.6709C75.0546 31.9516 74.5193 33.6273 73.4488 34.6978C72.3782 35.7684 70.7259 36.3036 68.4917 36.3036C66.2808 36.3036 63.9302 36.1873 61.4401 35.9546V31.2418C63.2553 31.3582 65.1172 31.4164 67.0255 31.4164C67.5608 31.4164 67.9797 31.2651 68.2822 30.9626C68.6081 30.6367 68.771 30.2062 68.771 29.6709V16.4055H64.2328V11.5182H75.0546V29.6709Z" fill="#222222" fill-opacity="0.42"/>
<path d="M90.7623 35.9546H78.1951V31.0673H81.3369V16.4055H78.1951V11.5182H90.7623V16.4055H87.6205V31.0673H90.7623V35.9546Z" fill="#222222" fill-opacity="0.42"/>
<path d="M114.847 35.4309C109.401 36.0127 104.397 36.3036 99.836 36.3036C97.5552 36.3036 95.8796 35.7684 94.8091 34.6978C93.7385 33.6273 93.2032 31.9516 93.2032 29.6709V18.5C93.2032 16.0564 93.7502 14.2876 94.844 13.1938C95.9611 12.0767 97.7414 11.5182 100.185 11.5182H112.752V16.4055H101.581C100.185 16.4055 99.4869 17.1036 99.4869 18.5V29.6709C99.4869 30.2062 99.6382 30.6367 99.9407 30.9626C100.267 31.2651 100.697 31.4164 101.232 31.4164C103.909 31.4164 106.352 31.3582 108.563 31.2418V26.18H104.025V21.9909H114.847V35.4309Z" fill="#222222" fill-opacity="0.42"/>
<path d="M139.29 35.4309C133.844 36.0127 128.841 36.3036 124.279 36.3036C121.998 36.3036 120.323 35.7684 119.252 34.6978C118.182 33.6273 117.646 31.9516 117.646 29.6709V18.5C117.646 16.0564 118.193 14.2876 119.287 13.1938C120.404 12.0767 122.185 11.5182 124.628 11.5182H137.196V16.4055H126.025C124.628 16.4055 123.93 17.1036 123.93 18.5V29.6709C123.93 30.2062 124.081 30.6367 124.384 30.9626C124.71 31.2651 125.14 31.4164 125.676 31.4164C128.352 31.4164 130.796 31.3582 133.006 31.2418V26.18H128.468V21.9909H139.29V35.4309Z" fill="#222222" fill-opacity="0.42"/>
<path d="M149.071 31.0673H161.813V35.9546H142.788V11.5182H149.071V31.0673Z" fill="#222222" fill-opacity="0.42"/>
<path d="M183.64 35.9546H164.265V11.5182H183.64V16.4055H170.549V21.1182H180.847V26.0055H170.549V31.0673H183.64V35.9546Z" fill="#222222" fill-opacity="0.42"/>
<g clip-path="url(#clip0_1014_1281)">
<path fill-rule="evenodd" clip-rule="evenodd" d="M2.65615 8.83013C3.36479 8.8332 4.0435 9.11609 4.5446 9.61719C5.04569 10.1183 5.3286 10.797 5.33168 11.5057C5.35045 12.2005 5.63969 12.8605 6.13776 13.3453C6.63583 13.8301 7.30341 14.1014 7.99847 14.1014C8.69352 14.1014 9.36111 13.8301 9.85918 13.3453C10.3572 12.8605 10.6465 12.2005 10.6653 11.5057V3.17553C10.6683 2.46688 10.9511 1.78812 11.4522 1.28703C11.9533 0.785935 12.6321 0.503072 13.3408 0.5C14.0467 0.506652 14.7215 0.791222 15.2191 1.29204C15.7166 1.79286 15.9967 2.46958 15.9987 3.17553V20.6647C15.9891 21.021 16.051 21.3756 16.1807 21.7076C16.3104 22.0395 16.5053 22.3421 16.7539 22.5975C17.0025 22.8529 17.2997 23.0559 17.628 23.1945C17.9563 23.3331 18.3091 23.4045 18.6655 23.4045C19.0219 23.4045 19.3747 23.3331 19.7031 23.1945C20.0314 23.0559 20.3287 22.8529 20.5773 22.5975C20.8258 22.3421 21.0207 22.0395 21.1504 21.7076C21.2801 21.3756 21.3419 21.021 21.3323 20.6647V11.5057C21.3354 10.797 21.6183 10.1183 22.1194 9.61719C22.6205 9.11609 23.2992 8.8332 24.0079 8.83013C24.7138 8.83678 25.3886 9.12138 25.8861 9.6222C26.3837 10.123 26.6639 10.7997 26.6659 11.5057V20.6647C26.6659 21.3718 26.9468 22.0498 27.4467 22.5498C27.9466 23.0497 28.6246 23.3305 29.3316 23.3305C30.0387 23.3305 30.7167 23.0497 31.2167 22.5498C31.7166 22.0498 31.9975 21.3718 31.9975 20.6647V3.17553C32.0006 2.46655 32.2837 1.78749 32.7852 1.28634C33.2867 0.785191 33.9659 0.50256 34.6749 0.5C35.3816 0.503604 36.0581 0.787251 36.556 1.28879C37.0539 1.79032 37.3326 2.46883 37.3311 3.17553V11.5057C37.3498 12.2005 37.639 12.8605 38.1371 13.3453C38.6351 13.8301 39.3027 14.1014 39.9978 14.1014C40.6928 14.1014 41.3605 13.8301 41.8586 13.3453C42.3566 12.8605 42.6458 12.2005 42.6646 11.5057C42.6676 10.7967 42.9508 10.1176 43.4523 9.6165C43.9538 9.11535 44.6331 8.83269 45.3421 8.83013C46.0488 8.83374 46.7252 9.11741 47.2231 9.61894C47.721 10.1205 47.9997 10.799 47.9981 11.5057V37.5138C47.9956 38.2174 47.7149 38.8915 47.2173 39.3891C46.7198 39.8866 46.0457 40.1673 45.3421 40.1699C44.6361 40.1684 43.9592 39.8887 43.458 39.3915C42.9568 38.8944 42.6717 38.2197 42.6646 37.5138C42.6742 37.1575 42.6124 36.8029 42.4827 36.471C42.353 36.139 42.1581 35.8364 41.9095 35.581C41.6609 35.3256 41.3636 35.1226 41.0353 34.984C40.707 34.8454 40.3542 34.774 39.9978 34.774C39.6414 34.774 39.2887 34.8454 38.9603 34.984C38.632 35.1226 38.3347 35.3256 38.0861 35.581C37.8375 35.8364 37.6426 36.139 37.5129 36.471C37.3832 36.8029 37.3214 37.1575 37.3311 37.5138V45.8342C37.3316 46.1832 37.2632 46.5289 37.1299 46.8515C36.9967 47.1741 36.8011 47.4673 36.5543 47.7141C36.3076 47.961 36.0146 48.1569 35.6921 48.2904C35.3696 48.4239 35.024 48.4925 34.6749 48.4922C33.968 48.4933 33.2896 48.2141 32.7881 47.7159C32.2866 47.2177 32.003 46.5411 31.9994 45.8342V28.3216C31.9994 27.6146 31.7186 26.9366 31.2187 26.4366C30.7187 25.9367 30.0407 25.6558 29.3336 25.6558C28.6266 25.6558 27.9485 25.9367 27.4486 26.4366C26.9487 26.9366 26.6678 27.6146 26.6678 28.3216V37.5002C26.6617 38.203 26.3796 38.8754 25.8824 39.3722C25.3852 39.8691 24.7127 40.1506 24.0098 40.1562C23.3042 40.1542 22.6278 39.8743 22.127 39.3772C21.6262 38.8801 21.3415 38.2057 21.3343 37.5002V28.3216C21.3155 27.6268 21.0263 26.9668 20.5282 26.482C20.0302 25.9972 19.3626 25.7259 18.6675 25.7259C17.9725 25.7259 17.3048 25.9972 16.8067 26.482C16.3087 26.9668 16.0195 27.6268 16.0007 28.3216V45.8342C15.9987 46.5385 15.718 47.2134 15.2199 47.7114C14.7219 48.2095 14.047 48.4902 13.3427 48.4922C12.6356 48.4938 11.9569 48.2148 11.4553 47.7165C10.9537 47.2182 10.6702 46.5412 10.6672 45.8342V37.506C10.6768 37.1497 10.6149 36.7952 10.4852 36.4632C10.3555 36.1312 10.1607 35.8286 9.9121 35.5732C9.66351 35.3178 9.36623 35.1148 9.0379 34.9762C8.70956 34.8376 8.35676 34.7662 8.00037 34.7662C7.64397 34.7662 7.29118 34.8376 6.96284 34.9762C6.6345 35.1148 6.33732 35.3178 6.08873 35.5732C5.84015 35.8286 5.64521 36.1312 5.51552 36.4632C5.38583 36.7952 5.32395 37.1497 5.33358 37.506C5.32642 38.2116 5.04166 38.8859 4.54089 39.3831C4.04013 39.8802 3.36366 40.1601 2.65805 40.1621C1.95516 40.1565 1.28267 39.8749 0.785459 39.3781C0.288246 38.8812 0.0061949 38.2089 9.15527e-05 37.506V11.5057C0.00210793 10.7997 0.282216 10.123 0.779758 9.6222C1.2773 9.12138 1.95212 8.83678 2.65805 8.83013H2.65615ZM10.6653 19.1762C10.6749 18.8199 10.613 18.4653 10.4833 18.1334C10.3536 17.8014 10.1587 17.4988 9.9101 17.2434C9.66152 16.988 9.36434 16.785 9.036 16.6464C8.70765 16.5078 8.35486 16.4364 7.99847 16.4364C7.64207 16.4364 7.28928 16.5078 6.96094 16.6464C6.6326 16.785 6.33532 16.988 6.08673 17.2434C5.83815 17.4988 5.64331 17.8014 5.51362 18.1334C5.38393 18.4653 5.32205 18.8199 5.33168 19.1762V29.8433C5.35045 30.5381 5.63969 31.1981 6.13776 31.6829C6.63583 32.1677 7.30341 32.439 7.99847 32.439C8.69352 32.439 9.36111 32.1677 9.85918 31.6829C10.3572 31.1981 10.6465 30.5381 10.6653 29.8433V19.1762ZM37.3233 29.8433V19.1762C37.3137 18.8199 37.3754 18.4653 37.5051 18.1334C37.6348 17.8014 37.8298 17.4988 38.0783 17.2434C38.3269 16.988 38.6242 16.785 38.9525 16.6464C39.2809 16.5078 39.6337 16.4364 39.9901 16.4364C40.3465 16.4364 40.6992 16.5078 41.0275 16.6464C41.3558 16.785 41.6531 16.988 41.9017 17.2434C42.1503 17.4988 42.3452 17.8014 42.4749 18.1334C42.6046 18.4653 42.6664 18.8199 42.6568 19.1762V29.8433C42.638 30.5381 42.3488 31.1981 41.8508 31.6829C41.3527 32.1677 40.6851 32.439 39.9901 32.439C39.295 32.439 38.6273 32.1677 38.1293 31.6829C37.6312 31.1981 37.342 30.5381 37.3233 29.8433Z" fill="#222222" fill-opacity="0.42"/>
</g>
<defs>
<clipPath id="clip0_1014_1281">
<rect width="48" height="48" fill="white" transform="translate(0 0.5)"/>
</clipPath>
</defs>
</svg>
