<svg width="34" height="35" viewBox="0 0 34 35" fill="none" xmlns="http://www.w3.org/2000/svg">
<path d="M8.5 30.25V27.4167C8.5 25.9138 9.09702 24.4724 10.1597 23.4097C11.2224 22.347 12.6638 21.75 14.1667 21.75H19.8333C21.3362 21.75 22.7776 22.347 23.8403 23.4097C24.903 24.4724 25.5 25.9138 25.5 27.4167V30.25M11.3333 10.4167C11.3333 11.9196 11.9304 13.3609 12.9931 14.4236C14.0558 15.4863 15.4971 16.0833 17 16.0833C18.5029 16.0833 19.9442 15.4863 21.0069 14.4236C22.0696 13.3609 22.6667 11.9196 22.6667 10.4167C22.6667 8.91377 22.0696 7.47243 21.0069 6.40973C19.9442 5.34702 18.5029 4.75 17 4.75C15.4971 4.75 14.0558 5.34702 12.9931 6.40973C11.9304 7.47243 11.3333 8.91377 11.3333 10.4167Z" stroke="#F6A723" stroke-width="2" stroke-linecap="round" stroke-linejoin="round"/>
</svg>
