<svg width="16" height="16" viewBox="0 0 16 16" fill="none" xmlns="http://www.w3.org/2000/svg">
<path d="M15.0677 7.9668C15.0434 7.67594 14.981 7.39703 14.7977 7.16018C14.7406 7.08669 14.6711 7.02294 14.6104 6.95211C14.3776 6.67719 14.1531 6.39518 13.9127 6.12735C13.6515 5.83649 13.4789 5.51198 13.4749 5.11443C13.4709 4.7275 13.4753 4.34013 13.4735 3.95276C13.4691 3.11383 12.8812 2.52813 12.0396 2.52326C11.6748 2.52149 11.3096 2.52326 10.9443 2.52281C10.5818 2.52193 10.2608 2.39974 9.985 2.16953C9.65385 1.89328 9.32979 1.60906 9.00484 1.32573C8.36778 0.770575 7.61917 0.772345 6.98609 1.33193C6.6793 1.60287 6.37383 1.87469 6.06305 2.14076C5.77174 2.39044 5.43307 2.52237 5.04659 2.52281C4.6539 2.52281 4.26122 2.51794 3.86854 2.52503C3.11372 2.53875 2.52802 3.12578 2.51739 3.87839C2.51208 4.25425 2.51828 4.63055 2.51518 5.00685C2.51208 5.40839 2.38237 5.76344 2.11851 6.06891C1.97419 6.23581 1.83651 6.40846 1.69573 6.57846C1.54078 6.75688 1.38185 6.93219 1.23221 7.11503C0.951978 7.45636 0.879816 7.85037 0.950207 8.27935C1.02104 8.70878 1.31677 8.99477 1.59036 9.29537C1.76612 9.50787 1.937 9.72435 2.11851 9.93198C2.31685 10.1591 2.44302 10.4194 2.48773 10.7142C2.5537 11.1481 2.53112 11.5873 2.51075 12.0216C2.47312 12.8224 3.12745 13.5024 3.96948 13.4776C4.32851 13.467 4.68799 13.4776 5.04747 13.4754C5.40429 13.4732 5.7226 13.5861 5.99487 13.811C6.36143 14.1129 6.71958 14.425 7.07862 14.7358C7.57976 15.1697 8.3306 15.2046 8.85078 14.7973C9.16333 14.5525 9.46747 14.2944 9.75656 14.0222C10.1585 13.6428 10.6114 13.4329 11.1759 13.4723C11.4893 13.494 11.8059 13.4807 12.1211 13.4745C12.8768 13.4599 13.47 12.8574 13.474 12.1035C13.4762 11.7108 13.4678 11.3181 13.4775 10.9259C13.4868 10.5673 13.6117 10.2459 13.8459 9.97138C14.1403 9.62695 14.4395 9.28695 14.7335 8.94208C14.9721 8.66185 15.0996 8.34133 15.0677 7.96724V7.9668ZM7.55807 10.0002C7.32831 10.2352 6.96086 10.2441 6.74305 9.99617C6.56153 9.78943 6.357 9.60216 6.15956 9.40914C6.11396 9.36443 6.06836 9.30776 6.00328 9.32149C5.99088 9.25597 5.93643 9.21966 5.89393 9.17628C5.64114 8.92083 5.38393 8.66982 5.13292 8.41261C4.93325 8.20763 4.8943 7.92695 5.03065 7.73305C5.22057 7.463 5.55216 7.42669 5.78989 7.65956C6.20073 8.06198 6.60271 8.47281 7.01133 8.87745C7.13396 8.99875 7.16716 9.00008 7.28492 8.8832C7.96669 8.20498 8.64669 7.52409 9.32492 6.84232C9.35635 6.81089 9.40372 6.78078 9.39443 6.72677C9.45862 6.71305 9.50599 6.66435 9.55336 6.61698C9.78047 6.39253 10.0005 6.16055 10.2334 5.94185C10.3896 5.79487 10.642 5.77141 10.8173 5.87367C10.9992 5.97992 11.0816 6.18003 11.032 6.40094C11.0059 6.51826 10.9368 6.61034 10.8545 6.69357C10.6646 6.88526 10.472 7.0743 10.2829 7.26732C10.2382 7.31292 10.1767 7.35143 10.1851 7.42979C10.1851 7.43112 10.1842 7.43245 10.1838 7.43378C10.1709 7.42758 10.1519 7.42979 10.1267 7.44307C10.0669 7.47406 10.024 7.5263 9.97747 7.57279C9.16953 8.38029 8.35583 9.18292 7.55763 9.99971L7.55807 10.0002Z" fill="#22A800"/>
</svg>
