<svg width="22" height="22" viewBox="0 0 22 22" fill="none" xmlns="http://www.w3.org/2000/svg">
<g id="bubble-chat-question">
<path id="Vector" d="M7.33337 18.5252L7.59697 17.8903L7.32311 17.7765L7.05247 17.8977L7.33337 18.5252ZM3.66671 20.1666L3.00283 19.988C2.93386 20.2443 3.01857 20.5174 3.22046 20.6896C3.42235 20.8619 3.70537 20.9025 3.94761 20.7941L3.66671 20.1666ZM4.58337 16.7603L5.24725 16.939L5.35481 16.5393L5.05194 16.2572L4.58337 16.7603ZM11 1.14581C5.59197 1.14581 1.14587 5.32003 1.14587 10.5416H2.52087C2.52087 6.14505 6.28404 2.52081 11 2.52081V1.14581ZM19.4792 10.5416C19.4792 14.9383 15.716 18.5625 11 18.5625V19.9375C16.4081 19.9375 20.8542 15.7633 20.8542 10.5416H19.4792ZM11 2.52081C15.716 2.52081 19.4792 6.14505 19.4792 10.5416H20.8542C20.8542 5.32003 16.4081 1.14581 11 1.14581V2.52081ZM7.06978 19.1601C8.27531 19.6606 9.60497 19.9375 11 19.9375V18.5625C9.78784 18.5625 8.63721 18.3221 7.59697 17.8903L7.06978 19.1601ZM7.05247 17.8977L3.3858 19.5392L3.94761 20.7941L7.61428 19.1527L7.05247 17.8977ZM1.14587 10.5416C1.14587 13.1817 2.28835 15.5623 4.11481 17.2634L5.05194 16.2572C3.48435 14.7973 2.52087 12.7731 2.52087 10.5416H1.14587ZM4.33058 20.3453L5.24725 16.939L3.9195 16.5817L3.00283 19.988L4.33058 20.3453Z" fill="#64748B"/>
<path id="Vector_2" d="M8.70837 8.93748C8.70837 7.67183 9.7344 6.64581 11 6.64581C12.2657 6.64581 13.2917 7.67183 13.2917 8.93748C13.2917 10.2031 12.2657 11.2291 11 11.2291V13.0625M11 14.4375V15.8125" stroke="#64748B" stroke-width="1.5"/>
</g>
</svg>
