<svg width="68" height="57" viewBox="0 0 68 57" fill="none" xmlns="http://www.w3.org/2000/svg">
<path d="M5.6996 50.2743H7.03705L6.42564 51.4684L3.62654 56.9615L0.82744 51.4684L0.225586 50.2743H1.56304L2.17445 51.4684L3.62654 54.3248L5.6996 50.2743Z" fill="url(#paint0_linear_1058_1558)"/>
<path d="M13.0028 54.4013H8.47459V53.2071H13.0028V54.4013Z" fill="url(#paint1_linear_1058_1558)"/>
<path d="M16.2339 51.4589C15.8995 51.4589 15.6225 51.7359 15.6225 52.0798V52.6912H19.9215V53.8854H15.6225V55.1464C15.6225 55.4903 15.8995 55.7674 16.2339 55.7674H21.1156V56.9615H16.2339C15.2404 56.9615 14.4379 56.1495 14.4379 55.1464V52.0798C14.4379 51.0767 15.2404 50.2647 16.2339 50.2647H21.1156V51.4589H16.2339Z" fill="url(#paint2_linear_1058_1558)"/>
<path d="M22.5563 56.9806V56.9615H22.5658L22.5563 56.9806ZM29.234 56.9615V56.9806L29.2245 56.9615H29.234ZM29.234 50.2647V50.2743L26.6451 53.6275L29.2245 56.9615H27.715L25.8999 54.6019L24.0753 56.9615H22.5658L25.1452 53.6275L22.5563 50.2647H24.0562L25.8999 52.653L27.7342 50.2647H29.234Z" fill="url(#paint3_linear_1058_1558)"/>
<path d="M36.1678 50.7901C36.4926 51.1245 36.6932 51.5735 36.6932 52.0703C36.6932 52.8059 36.2538 53.4364 35.6328 53.7134C35.4704 53.7899 35.2985 53.8472 35.1169 53.8663C35.0978 53.8663 35.0787 53.8663 35.0596 53.8663V53.8758H31.8593V56.952H30.6747V50.2647H34.8877C35.3844 50.2647 35.8334 50.4653 36.1678 50.7901ZM35.1361 52.6339C35.3653 52.5288 35.4991 52.3187 35.4991 52.0703C35.4991 51.8505 35.3844 51.7072 35.3176 51.6308C35.2411 51.5544 35.0978 51.4589 34.8877 51.4589H31.8593V52.6912H34.8877C34.9736 52.6912 35.0596 52.6721 35.1361 52.6339Z" fill="url(#paint4_linear_1058_1558)"/>
<path d="M42.573 53.8663L43.5378 55.7578L44.1397 56.952H42.8022L41.5508 54.5064L41.5221 54.4586C41.3215 54.1147 40.9394 53.8854 40.5095 53.8854H39.3153V56.9615H38.1307V50.2647H42.3437C42.85 50.2647 43.299 50.4749 43.6238 50.7997C43.9486 51.1245 44.1492 51.5831 44.1492 52.0798C44.1492 52.8059 43.7193 53.4364 43.0888 53.723C42.9264 53.7994 42.7545 53.8472 42.573 53.8663ZM39.3153 52.6912H42.3437C42.4297 52.6912 42.5156 52.6721 42.5921 52.6339C42.8213 52.5384 42.9551 52.3187 42.9551 52.0798C42.9551 51.8601 42.8404 51.7072 42.7736 51.6308C42.6971 51.564 42.5538 51.4589 42.3437 51.4589H39.3153V52.6912Z" fill="url(#paint5_linear_1058_1558)"/>
<path d="M47.3827 51.4589C47.0484 51.4589 46.7713 51.7359 46.7713 52.0798V52.6912H51.0703V53.8854H46.7713V55.1464C46.7713 55.4903 47.0484 55.7674 47.3827 55.7674H52.2644V56.9615H47.3827C46.3892 56.9615 45.5867 56.1495 45.5867 55.1464V52.0798C45.5867 51.0767 46.3892 50.2647 47.3827 50.2647H52.2644V51.4589H47.3827Z" fill="url(#paint6_linear_1058_1558)"/>
<path d="M60.0198 52.1085H58.8352V52.0798C58.8352 51.7359 58.5581 51.4684 58.2142 51.4684H55.5011C55.1667 51.4684 54.8897 51.7359 54.8897 52.0798V52.1085C54.8897 52.4524 55.1667 52.7199 55.5011 52.7199H57.9085C58.5295 52.7199 59.0836 52.9874 59.4657 53.4173C59.4944 53.4459 59.523 53.4746 59.5421 53.5033C59.8478 53.8758 60.0198 54.3344 60.0198 54.8407C60.0198 56.0062 59.074 56.952 57.9085 56.952H55.8164C54.6413 56.952 53.7051 56.0062 53.7051 54.8407H54.8897C54.8897 55.347 55.3005 55.7578 55.8164 55.7578H57.9085C58.4148 55.7578 58.8352 55.347 58.8352 54.8407C58.8352 54.3344 58.4148 53.9236 57.9085 53.9236H55.5011C55.0139 53.9236 54.5744 53.7325 54.2592 53.4173C54.1732 53.3313 54.0872 53.2358 54.0204 53.1402C53.8197 52.8441 53.7051 52.4906 53.7051 52.1085V52.0798C53.7051 51.0767 54.5076 50.2647 55.5011 50.2647H58.2142C59.2173 50.2647 60.0198 51.0767 60.0198 52.0798V52.1085Z" fill="url(#paint7_linear_1058_1558)"/>
<path d="M67.7743 52.1085H66.5897V52.0798C66.5897 51.7359 66.3127 51.4684 65.9688 51.4684H63.2556C62.9213 51.4684 62.6442 51.7359 62.6442 52.0798V52.1085C62.6442 52.4524 62.9213 52.7199 63.2556 52.7199H65.6631C66.284 52.7199 66.8381 52.9874 67.2203 53.4173C67.2489 53.4459 67.2776 53.4746 67.2967 53.5033C67.6024 53.8758 67.7743 54.3344 67.7743 54.8407C67.7743 56.0062 66.8286 56.952 65.6631 56.952H63.5709C62.3959 56.952 61.4596 56.0062 61.4596 54.8407H62.6442C62.6442 55.347 63.055 55.7578 63.5709 55.7578H65.6631C66.1694 55.7578 66.5897 55.347 66.5897 54.8407C66.5897 54.3344 66.1694 53.9236 65.6631 53.9236H63.2556C62.7684 53.9236 62.329 53.7325 62.0137 53.4173C61.9277 53.3313 61.8418 53.2358 61.7749 53.1402C61.5743 52.8441 61.4596 52.4906 61.4596 52.1085V52.0798C61.4596 51.0767 62.2621 50.2647 63.2556 50.2647H65.9688C66.9719 50.2647 67.7743 51.0767 67.7743 52.0798V52.1085Z" fill="url(#paint8_linear_1058_1558)"/>
<g clip-path="url(#clip0_1058_1558)">
<path fill-rule="evenodd" clip-rule="evenodd" d="M54.2092 6.22399C52.449 6.22399 48.8124 4.10748 46.8926 4.10748C46.2599 4.10748 44.9728 5.44134 44.7579 6.35149C45.5621 6.41426 48.4261 7.91877 49.5102 8.37385C50.0995 8.62885 50.6475 8.83874 51.1836 9.09374C50.3262 10.7022 50.0364 10.5335 48.8242 11.7301L44.34 16.1553C42.6883 18.007 43.2678 17.1812 39.2015 17.1812C38.279 17.1812 38.0109 18.2816 37.9459 18.419C38.3539 18.6406 40.2737 19.2448 40.8434 19.2977C40.8217 20.0078 40.7251 19.7214 39.4912 20.9494C38.6338 21.785 38.4505 22.2302 37.8178 22.2832C37.7527 22.9501 37.2501 23.3621 36.8086 23.6485C36.3375 23.4052 33.8263 21.1494 33.237 20.5688C32.6693 19.998 32.1864 19.5213 31.6069 18.9486C30.9959 18.3562 30.5879 17.8266 29.965 17.2126L25.0413 12.2263C23.1648 10.3746 23.8074 11.7811 20.2141 11.2416C17.9297 10.9023 20.8902 13.3582 21.1898 13.6661L23.3994 15.7199C24.1405 16.4496 24.858 17.0321 25.5025 17.8678L28.8277 21.0651C29.2239 21.4672 29.4072 21.7752 29.8369 22.1871L36.4242 28.6328C37.2501 28.6328 37.8611 27.5206 38.3559 27.0459C39.6331 25.765 42.7435 22.5049 43.8709 21.9125C43.8709 23.6798 45.8873 24.6214 45.8873 22.2832C45.8873 21.224 45.7691 20.6963 45.7691 19.6685C46.4767 19.2036 46.9911 18.5249 47.819 17.7108C48.8597 16.6634 50.7914 15.1079 51.907 13.7838C52.3249 13.2856 53.3774 11.9635 53.9668 11.8262L56.1448 16.7693C56.3695 17.2989 56.4247 18.1777 57.1205 18.1777C57.5068 18.1777 57.4102 17.9443 58.0962 17.2773C58.8787 16.5045 59.0088 16.6536 59.0088 15.816C59.0088 14.6626 58.311 13.1698 57.9897 12.2165C57.6684 11.2534 56.9588 9.72929 56.8642 8.5857C57.765 8.35228 63.4299 2.83836 63.4299 0.625726C63.4299 0.286378 63.3648 0.27657 63.3018 0.00195312H63.2485C62.1861 0.00195312 61.3918 0.0862998 60.3629 0.837574C56.405 3.73871 59.194 1.377 56.2118 4.3311L54.7631 5.77087C54.5265 6.05726 54.5916 6.22596 54.2151 6.22596L54.2092 6.22399Z" fill="url(#paint9_linear_1058_1558)"/>
<path fill-rule="evenodd" clip-rule="evenodd" d="M9.30225 11.326C9.50527 12.193 10.1597 12.6069 10.7175 13.1679C11.3187 13.7505 11.8232 14.2683 12.4225 14.8509C12.7654 15.1687 12.9704 15.253 13.3134 15.5924L34.6936 36.5613C35.3381 37.091 35.9807 37.5558 36.4203 38.213C37.7941 37.5676 37.6758 37.4185 39.1029 36.0003L51.087 24.1761C51.3866 23.9113 51.5167 23.8897 51.7848 23.6249C52.1928 23.2228 52.2145 22.9364 53.0068 22.3342C53.3813 22.0478 54.1008 21.5084 54.2289 21.0631C54.4221 20.4805 53.403 17.803 52.6954 17.803C52.0942 17.803 50.5706 19.9843 49.7447 20.608C49.2736 20.967 49.0903 21.169 48.6941 21.5614L41.754 28.4091C41.3578 28.8112 41.0779 28.9486 40.6817 29.3409C39.9524 30.0608 37.3132 32.9285 36.5523 33.109C35.963 32.7167 32.8625 29.5311 31.9183 28.5994C31.3388 28.0286 30.8461 27.6677 30.2764 27.1067L19.4947 16.4574C18.927 15.8964 18.4323 15.5374 17.8528 14.9647C16.7903 13.9172 15.8147 12.9756 14.7621 11.9164C14.0013 11.1436 13.6248 11.324 12.2096 11.324C10.9008 11.3338 10.5145 11.1965 9.30225 11.324V11.326Z" fill="url(#paint10_linear_1058_1558)"/>
<path fill-rule="evenodd" clip-rule="evenodd" d="M7.15577 28.3777C9.29044 28.3777 18.8285 28.5582 20.1471 28.2502C20.1037 27.6794 19.6859 27.4774 18.9881 26.7889C18.4618 26.2809 18.2056 25.763 17.2496 25.763H11.1886C10.276 25.763 9.93301 25.9003 9.05391 25.8905C7.42383 25.8905 6.25302 25.763 4.63477 25.763C4.6663 26.9909 6.99414 28.3777 7.15577 28.3777Z" fill="url(#paint11_linear_1058_1558)"/>
<path fill-rule="evenodd" clip-rule="evenodd" d="M9.67676 29.8705C9.70829 30.8434 11.5966 32.4852 12.2076 32.4852C14.2457 32.4852 22.9992 32.6657 24.3199 32.3577C24.2331 31.3946 23.9453 32.0302 23.0012 30.8022C22.605 30.2726 22.0255 29.7548 21.1661 29.7548H14.3541C12.6373 29.7548 11.3817 29.8705 9.67676 29.8705Z" fill="url(#paint12_linear_1058_1558)"/>
<path fill-rule="evenodd" clip-rule="evenodd" d="M18.1306 36.5927H28.3545C28.3545 35.7041 28.3447 36.0847 28.1081 35.8414C26.7994 34.5919 26.3913 33.9682 25.2008 33.978C22.0037 33.9995 20.963 33.7975 17.5097 33.978C16.2659 34.0525 14.013 33.4072 16.5222 35.6924C16.8652 35.9984 17.5728 36.5927 18.1306 36.5927Z" fill="url(#paint13_linear_1058_1558)"/>
</g>
<defs>
<linearGradient id="paint0_linear_1058_1558" x1="0.225586" y1="56.9806" x2="67.7743" y2="56.9806" gradientUnits="userSpaceOnUse">
<stop stop-color="#8D133E"/>
<stop offset="1" stop-color="#D6A12B"/>
</linearGradient>
<linearGradient id="paint1_linear_1058_1558" x1="0.225586" y1="56.9806" x2="67.7743" y2="56.9806" gradientUnits="userSpaceOnUse">
<stop stop-color="#8D133E"/>
<stop offset="1" stop-color="#D6A12B"/>
</linearGradient>
<linearGradient id="paint2_linear_1058_1558" x1="0.225586" y1="56.9806" x2="67.7743" y2="56.9806" gradientUnits="userSpaceOnUse">
<stop stop-color="#8D133E"/>
<stop offset="1" stop-color="#D6A12B"/>
</linearGradient>
<linearGradient id="paint3_linear_1058_1558" x1="0.225586" y1="56.9806" x2="67.7743" y2="56.9806" gradientUnits="userSpaceOnUse">
<stop stop-color="#8D133E"/>
<stop offset="1" stop-color="#D6A12B"/>
</linearGradient>
<linearGradient id="paint4_linear_1058_1558" x1="0.225586" y1="56.9806" x2="67.7743" y2="56.9806" gradientUnits="userSpaceOnUse">
<stop stop-color="#8D133E"/>
<stop offset="1" stop-color="#D6A12B"/>
</linearGradient>
<linearGradient id="paint5_linear_1058_1558" x1="0.225586" y1="56.9806" x2="67.7743" y2="56.9806" gradientUnits="userSpaceOnUse">
<stop stop-color="#8D133E"/>
<stop offset="1" stop-color="#D6A12B"/>
</linearGradient>
<linearGradient id="paint6_linear_1058_1558" x1="0.225586" y1="56.9806" x2="67.7743" y2="56.9806" gradientUnits="userSpaceOnUse">
<stop stop-color="#8D133E"/>
<stop offset="1" stop-color="#D6A12B"/>
</linearGradient>
<linearGradient id="paint7_linear_1058_1558" x1="0.225586" y1="56.9806" x2="67.7743" y2="56.9806" gradientUnits="userSpaceOnUse">
<stop stop-color="#8D133E"/>
<stop offset="1" stop-color="#D6A12B"/>
</linearGradient>
<linearGradient id="paint8_linear_1058_1558" x1="0.225586" y1="56.9806" x2="67.7743" y2="56.9806" gradientUnits="userSpaceOnUse">
<stop stop-color="#8D133E"/>
<stop offset="1" stop-color="#D6A12B"/>
</linearGradient>
<linearGradient id="paint9_linear_1058_1558" x1="19.355" y1="28.6328" x2="63.4299" y2="28.6328" gradientUnits="userSpaceOnUse">
<stop stop-color="#8D133E"/>
<stop offset="1" stop-color="#D6A12B"/>
</linearGradient>
<linearGradient id="paint10_linear_1058_1558" x1="9.30225" y1="38.213" x2="54.2528" y2="38.213" gradientUnits="userSpaceOnUse">
<stop stop-color="#8D133E"/>
<stop offset="1" stop-color="#D6A12B"/>
</linearGradient>
<linearGradient id="paint11_linear_1058_1558" x1="4.63477" y1="28.4303" x2="20.1471" y2="28.4303" gradientUnits="userSpaceOnUse">
<stop stop-color="#8D133E"/>
<stop offset="1" stop-color="#D6A12B"/>
</linearGradient>
<linearGradient id="paint12_linear_1058_1558" x1="9.67676" y1="32.5378" x2="24.3199" y2="32.5378" gradientUnits="userSpaceOnUse">
<stop stop-color="#8D133E"/>
<stop offset="1" stop-color="#D6A12B"/>
</linearGradient>
<linearGradient id="paint13_linear_1058_1558" x1="15.3865" y1="36.5927" x2="28.3545" y2="36.5927" gradientUnits="userSpaceOnUse">
<stop stop-color="#8D133E"/>
<stop offset="1" stop-color="#D6A12B"/>
</linearGradient>
<clipPath id="clip0_1058_1558">
<rect width="58.7892" height="38.213" fill="white" transform="translate(4.63477)"/>
</clipPath>
</defs>
</svg>
