<svg width="22" height="22" viewBox="0 0 22 22" fill="none" xmlns="http://www.w3.org/2000/svg">
<g id="user-account">
<path id="Vector" d="M12.8334 8.25H16.5" stroke="#64748B" stroke-width="1.5" stroke-linecap="round"/>
<path id="Vector_2" d="M12.8334 11.4583H15.5834" stroke="#64748B" stroke-width="1.5" stroke-linecap="round"/>
<path id="Vector_3" d="M15.5834 2.75H6.41671C3.8854 2.75 1.83337 4.80203 1.83337 7.33333V14.6667C1.83337 17.198 3.8854 19.25 6.41671 19.25H15.5834C18.1147 19.25 20.1667 17.198 20.1667 14.6667V7.33333C20.1667 4.80203 18.1147 2.75 15.5834 2.75Z" stroke="#64748B" stroke-width="1.5" stroke-linejoin="round"/>
<path id="Vector_4" d="M4.58337 14.6667C5.69099 12.3006 9.81956 12.145 11 14.6667" stroke="#64748B" stroke-width="1.5" stroke-linecap="round" stroke-linejoin="round"/>
<path id="Vector_5" d="M9.62504 8.25002C9.62504 9.26257 8.80423 10.0834 7.79171 10.0834C6.77918 10.0834 5.95837 9.26257 5.95837 8.25002C5.95837 7.2375 6.77918 6.41669 7.79171 6.41669C8.80423 6.41669 9.62504 7.2375 9.62504 8.25002Z" stroke="#64748B" stroke-width="1.5"/>
</g>
</svg>
