<svg width="22" height="22" viewBox="0 0 22 22" fill="none" xmlns="http://www.w3.org/2000/svg">
<g id="user-question-01">
<path id="Vector" d="M15.5834 14.5257C15.5834 13.591 16.4042 12.8333 17.4167 12.8333C18.4293 12.8333 19.25 13.591 19.25 14.5257C19.25 14.8625 19.1434 15.1764 18.9595 15.4401C18.4117 16.2261 17.4167 16.9756 17.4167 17.9103V18.3333M17.4077 20.1666H17.416" stroke="#64748B" stroke-width="1.5" stroke-linecap="round" stroke-linejoin="round"/>
<path id="Vector_2" d="M14.6667 20.1667H6.04167C4.62507 20.1667 3.49833 19.4774 2.48665 18.5136C0.415626 16.5405 3.81594 14.9637 5.11281 14.1915C7.45075 12.7994 10.2719 12.4775 12.8334 13.2258" stroke="#64748B" stroke-width="1.5" stroke-linecap="round" stroke-linejoin="round"/>
<path id="Vector_3" d="M15.125 5.95831C15.125 8.23649 13.2782 10.0833 11 10.0833C8.72183 10.0833 6.875 8.23649 6.875 5.95831C6.875 3.68014 8.72183 1.83331 11 1.83331C13.2782 1.83331 15.125 3.68014 15.125 5.95831Z" stroke="#64748B" stroke-width="1.5"/>
</g>
</svg>
